<svg width="564" height="510" viewBox="0 0 564 510" fill="none" xmlns="http://www.w3.org/2000/svg">
<path d="M65.6573 408.982C30.3703 358.714 -50.3133 211.623 112.335 167.673C274.983 123.723 222.906 -1.82113 341.714 0.0135502C460.522 1.86203 577.126 101.542 562.802 196.118C548.478 290.693 418.114 283.175 381.67 380.869C345.213 478.576 127.72 497.405 65.6573 408.982Z" fill="#F4B11B"/>
<path opacity="0.7" d="M65.1871 408.988C29.9001 358.721 -50.7835 211.629 111.865 167.679C274.513 123.73 222.436 -1.81478 341.244 0.0198978C460.052 1.86837 576.656 101.548 562.332 196.124C548.008 290.7 417.644 283.182 381.2 380.875C344.742 478.582 127.249 497.412 65.1871 408.988Z" fill="white"/>
<path d="M470.948 182.695C476.871 181.316 482.118 178.198 486.14 173.894L495.85 177.178L500.698 168.777L492.999 162.004C493.853 159.217 494.294 156.279 494.294 153.216C494.294 150.168 493.839 147.216 492.999 144.429L500.698 137.656L495.836 129.255L486.126 132.538C482.104 128.248 476.857 125.131 470.934 123.751L468.923 113.695H464.075" stroke="#263238" stroke-miterlimit="10"/>
<path d="M459.241 113.695L457.23 123.751C451.307 125.131 446.06 128.248 442.038 132.538L432.328 129.255L427.479 137.656L435.179 144.429C434.339 147.202 433.884 150.154 433.884 153.216C433.884 156.279 434.339 159.217 435.179 162.004L427.479 168.777L432.328 177.178L442.038 173.894C446.06 178.185 451.307 181.302 457.23 182.695L459.241 192.752H468.923L470.934 182.695" stroke="#263238" stroke-miterlimit="10"/>
<path d="M463.469 169.411C446.197 168.197 442.947 143.022 460.218 138.594" stroke="#263238" stroke-miterlimit="10"/>
<path d="M474.391 142.057C482.986 149.947 480.259 165.342 468.813 168.818" stroke="#263238" stroke-miterlimit="10"/>
<path d="M466.058 138.222C467.559 138.415 469.033 138.815 470.41 139.422" stroke="#263238" stroke-miterlimit="10"/>
<path d="M522.405 190.352L524.443 187.896C528.176 188.931 532.198 188.862 535.999 187.606L540.585 192.559" stroke="#263238" stroke-miterlimit="10"/>
<path d="M514.871 152.099L515.752 154.513C512.901 157.327 511.014 160.886 510.243 164.68L503.659 166.17L503.824 172.556L510.477 173.715C510.959 175.564 511.717 177.385 512.763 179.095C513.81 180.819 515.077 182.309 516.51 183.578L514.512 190.034L520.118 193.083" stroke="#263238" stroke-miterlimit="10"/>
<path d="M540.571 192.572L546.012 189.234L543.684 182.889C546.535 180.074 548.408 176.515 549.193 172.722L555.777 171.232L555.612 164.845L548.973 163.686C548.491 161.838 547.733 160.017 546.687 158.307C545.64 156.596 544.373 155.092 542.94 153.823L544.937 147.367L539.332 144.319L535.007 149.506C531.274 148.471 527.253 148.54 523.465 149.795L518.878 144.843L513.438 148.181" stroke="#263238" stroke-miterlimit="10"/>
<path d="M539.759 166.349C541.632 174.281 534.126 181.909 526.178 178.681C518.603 175.605 517.501 164.487 524.526 160.21" stroke="#263238" stroke-miterlimit="10"/>
<path d="M533.258 159.245C534.842 159.783 536.288 160.707 537.431 161.935" stroke="#263238" stroke-miterlimit="10"/>
<path d="M96.729 323.221L107.073 333.581C106.233 337.223 107.21 341.196 110.048 344.037C112.885 346.879 116.852 347.858 120.488 347.017L113.987 340.506L115.75 333.926L122.32 332.16L128.821 338.671C129.661 335.029 128.683 331.057 125.846 328.215C123.008 325.373 119.042 324.394 115.406 325.235L105.874 315.689" stroke="#263238" stroke-miterlimit="10"/>
<path d="M90.7516 300.53L81.2619 291.025C82.102 287.384 81.1241 283.411 78.2868 280.569C75.4496 277.727 71.4829 276.748 67.8467 277.589L74.3477 284.101L72.5847 290.681L66.0011 292.446L59.5002 285.935C58.66 289.577 59.6379 293.55 62.4752 296.392C65.3125 299.233 69.2791 300.213 72.9153 299.371L82.405 308.876" stroke="#263238" stroke-miterlimit="10"/>
<path d="M101.412 310.53L114.648 297.274C115.296 296.625 116.039 296.073 116.866 295.646L119.538 294.266L129.124 283.286L123.133 277.285L112.169 286.886L110.792 289.562C110.365 290.376 109.828 291.135 109.167 291.783L98.6714 302.295" stroke="#263238" stroke-miterlimit="10"/>
<path d="M66.1803 345.306C68.1224 346.327 70.1057 346.341 71.9376 344.506L94.8838 321.524C96.1509 320.255 96.5365 318.89 96.3024 317.538L100.283 313.551L100.531 313.799C101.109 314.379 102.046 314.379 102.611 313.799C103.189 313.22 103.189 312.282 102.611 311.716L94.7598 303.853C94.1813 303.274 93.2448 303.274 92.68 303.853C92.1016 304.433 92.1016 305.371 92.68 305.936L92.928 306.185L88.9475 310.171C87.584 309.937 86.2342 310.309 84.967 311.592L62.0208 334.574C60.8088 335.788 60.4094 337.057 60.5609 338.354" stroke="#263238" stroke-miterlimit="10"/>
<path d="M61.4561 340.782C61.9519 341.582 62.5992 342.382 63.3705 343.141C64.2796 344.051 65.2161 344.796 66.1803 345.306" stroke="#263238" stroke-miterlimit="10"/>
<path d="M68.5215 338.34L72.5295 334.326" stroke="#263238" stroke-miterlimit="10"/>
<path d="M77.9424 328.905L94.8835 311.579" stroke="#263238" stroke-miterlimit="10"/>
<path d="M447.589 35.9209H80.3945V274.843H447.589V35.9209Z" fill="white"/>
<path d="M447.589 35.9209H80.3945V274.843H119.221H180.774H447.589V35.9209Z" fill="#BFBFBF"/>
<path d="M447.589 35.9209H80.3945V67.1795H447.589V35.9209Z" fill="white"/>
<path d="M447.589 35.9209H80.3945V67.1795H447.589V35.9209Z" fill="#757575"/>
<path d="M436.336 62.1994H422.274C420.29 62.1994 418.665 60.5854 418.665 58.5852V44.5009C418.665 42.5145 420.277 40.8867 422.274 40.8867H436.336C438.319 40.8867 439.945 42.5007 439.945 44.5009V58.5852C439.945 60.5854 438.333 62.1994 436.336 62.1994Z" fill="white"/>
<path d="M410.236 62.1997H396.256C394.245 62.1997 392.62 60.572 392.62 58.558V44.5427C392.62 42.5286 394.245 40.9009 396.256 40.9009H410.25C412.261 40.9009 413.886 42.5286 413.886 44.5427V58.558C413.886 60.5582 412.247 62.1997 410.236 62.1997Z" fill="white"/>
<path d="M384.218 62.1994H370.156C368.159 62.1994 366.547 60.5854 366.547 58.5852V44.5009C366.547 42.5007 368.159 40.8867 370.156 40.8867H384.218C386.216 40.8867 387.827 42.5007 387.827 44.5009V58.5852C387.813 60.5716 386.202 62.1994 384.218 62.1994Z" fill="white"/>
<path d="M94.168 88.1612V253.848C94.168 257.821 97.3909 261.049 101.358 261.049H426.64C430.607 261.049 433.83 257.821 433.83 253.848V88.1612C433.83 84.1884 430.607 80.9604 426.64 80.9604H101.344C97.3771 80.9742 94.168 84.1884 94.168 88.1612Z" fill="#263238" stroke="#263238" stroke-miterlimit="10" stroke-linecap="round" stroke-linejoin="round"/>
<path d="M424.753 56.116L433.871 46.9702" stroke="#263238" stroke-miterlimit="10" stroke-linecap="round" stroke-linejoin="round"/>
<path d="M424.753 46.9702L433.871 56.116" stroke="#263238" stroke-miterlimit="10" stroke-linecap="round" stroke-linejoin="round"/>
<path d="M409.327 49.5913H397.165V57.6336H409.327V49.5913Z" stroke="#263238" stroke-miterlimit="10" stroke-linecap="round" stroke-linejoin="round"/>
<path d="M383.268 57.6338H371.106" stroke="#263238" stroke-miterlimit="10" stroke-linecap="round" stroke-linejoin="round"/>
<path d="M412.454 203.387H388.309C386.794 203.387 385.555 202.146 385.555 200.629C385.555 199.111 386.794 197.87 388.309 197.87H412.454C413.969 197.87 415.208 199.111 415.208 200.629C415.208 202.146 413.983 203.387 412.454 203.387Z" fill="#757575"/>
<path d="M412.454 222.466H345.061C343.546 222.466 342.307 221.224 342.307 219.707C342.307 218.189 343.546 216.948 345.061 216.948H412.454C413.969 216.948 415.208 218.189 415.208 219.707C415.208 221.238 413.982 222.466 412.454 222.466Z" fill="#757575"/>
<path d="M412.454 241.543H263.992C262.477 241.543 261.237 240.302 261.237 238.784C261.237 237.267 262.477 236.025 263.992 236.025H412.454C413.969 236.025 415.208 237.267 415.208 238.784C415.208 240.315 413.982 241.543 412.454 241.543Z" fill="#757575"/>
<path d="M119.648 184.296H108.395C106.88 184.296 105.641 183.054 105.641 181.537C105.641 180.019 106.88 178.778 108.395 178.778H119.634C121.149 178.778 122.389 180.019 122.389 181.537C122.403 183.068 121.163 184.296 119.648 184.296Z" fill="#BFBFBF"/>
<path d="M119.648 203.387H108.395C106.88 203.387 105.641 202.146 105.641 200.629C105.641 199.111 106.88 197.87 108.395 197.87H119.634C121.149 197.87 122.389 199.111 122.389 200.629C122.403 202.146 121.163 203.387 119.648 203.387Z" fill="#BFBFBF"/>
<path d="M119.648 222.465H108.395C106.88 222.465 105.641 221.224 105.641 219.706C105.641 218.189 106.88 216.947 108.395 216.947H119.634C121.149 216.947 122.389 218.189 122.389 219.706C122.403 221.237 121.163 222.465 119.648 222.465Z" fill="#BFBFBF"/>
<path d="M119.648 241.543H108.395C106.88 241.543 105.641 240.302 105.641 238.784C105.641 237.267 106.88 236.025 108.395 236.025H119.634C121.149 236.025 122.389 237.267 122.389 238.784C122.403 240.315 121.163 241.543 119.648 241.543Z" fill="#BFBFBF"/>
<g opacity="0.7">
<path opacity="0.7" d="M119.648 184.296H108.395C106.88 184.296 105.641 183.054 105.641 181.537C105.641 180.019 106.88 178.778 108.395 178.778H119.634C121.149 178.778 122.389 180.019 122.389 181.537C122.403 183.068 121.163 184.296 119.648 184.296Z" fill="#BFBFBF"/>
</g>
<g opacity="0.7">
<path opacity="0.7" d="M119.648 203.387H108.395C106.88 203.387 105.641 202.146 105.641 200.629C105.641 199.111 106.88 197.87 108.395 197.87H119.634C121.149 197.87 122.389 199.111 122.389 200.629C122.403 202.146 121.163 203.387 119.648 203.387Z" fill="#BFBFBF"/>
</g>
<g opacity="0.7">
<path opacity="0.7" d="M119.648 222.465H108.395C106.88 222.465 105.641 221.224 105.641 219.706C105.641 218.189 106.88 216.947 108.395 216.947H119.634C121.149 216.947 122.389 218.189 122.389 219.706C122.403 221.237 121.163 222.465 119.648 222.465Z" fill="#BFBFBF"/>
</g>
<g opacity="0.7">
<path opacity="0.7" d="M119.648 241.543H108.395C106.88 241.543 105.641 240.302 105.641 238.784C105.641 237.267 106.88 236.025 108.395 236.025H119.634C121.149 236.025 122.389 237.267 122.389 238.784C122.403 240.315 121.163 241.543 119.648 241.543Z" fill="#BFBFBF"/>
</g>
<path d="M345.061 165.218H108.395C106.88 165.218 105.641 163.976 105.641 162.459C105.641 160.941 106.88 159.7 108.395 159.7H345.061C346.576 159.7 347.815 160.941 347.815 162.459C347.815 163.976 346.589 165.218 345.061 165.218Z" fill="#BFBFBF"/>
<path d="M412.453 127.048H388.309C386.794 127.048 385.554 125.807 385.554 124.289C385.554 122.772 386.794 121.53 388.309 121.53H412.453C413.968 121.53 415.208 122.772 415.208 124.289C415.208 125.807 413.982 127.048 412.453 127.048Z" fill="#BFBFBF"/>
<path d="M378.213 127.048H355.156C353.641 127.048 352.402 125.807 352.402 124.289C352.402 122.772 353.641 121.53 355.156 121.53H378.213C379.728 121.53 380.968 122.772 380.968 124.289C380.968 125.807 379.742 127.048 378.213 127.048Z" fill="#BFBFBF"/>
<path d="M345.061 127.048H108.395C106.88 127.048 105.641 125.807 105.641 124.289C105.641 122.772 106.88 121.53 108.395 121.53H345.061C346.576 121.53 347.815 122.772 347.815 124.289C347.815 125.807 346.589 127.048 345.061 127.048Z" fill="#BFBFBF"/>
<path d="M412.453 184.296H388.309C386.794 184.296 385.554 183.054 385.554 181.537C385.554 180.019 386.794 178.778 388.309 178.778H412.453C413.968 178.778 415.208 180.019 415.208 181.537C415.208 183.068 413.982 184.296 412.453 184.296Z" fill="#999999"/>
<path d="M378.213 184.296H132.044C130.529 184.296 129.29 183.054 129.29 181.537C129.29 180.019 130.529 178.778 132.044 178.778H378.213C379.728 178.778 380.968 180.019 380.968 181.537C380.968 183.068 379.742 184.296 378.213 184.296Z" fill="#999999"/>
<path d="M202.742 203.387H132.044C130.529 203.387 129.29 202.146 129.29 200.629C129.29 199.111 130.529 197.87 132.044 197.87H202.742C204.257 197.87 205.497 199.111 205.497 200.629C205.497 202.146 204.257 203.387 202.742 203.387Z" fill="#999999"/>
<path d="M202.742 222.465H132.044C130.529 222.465 129.29 221.224 129.29 219.706C129.29 218.189 130.529 216.947 132.044 216.947H202.742C204.257 216.947 205.497 218.189 205.497 219.706C205.497 221.237 204.257 222.465 202.742 222.465Z" fill="#999999"/>
<path d="M202.742 241.543H132.044C130.529 241.543 129.29 240.302 129.29 238.784C129.29 237.267 130.529 236.025 132.044 236.025H202.742C204.257 236.025 205.497 237.267 205.497 238.784C205.497 240.315 204.257 241.543 202.742 241.543Z" fill="#999999"/>
<path d="M156.313 486.287C156.313 486.287 149.082 498.744 151.933 499.185C154.784 499.64 160.734 488.867 160.734 488.867L177.055 484.535L164.769 483.266L156.313 486.287Z" fill="white" stroke="#263238" stroke-miterlimit="10" stroke-linecap="round" stroke-linejoin="round"/>
<path opacity="0.3" d="M156.313 486.287C156.313 486.287 149.082 498.744 151.933 499.185C154.784 499.64 160.734 488.867 160.734 488.867L177.055 484.535L164.769 483.266L156.313 486.287Z" fill="black" stroke="#263238" stroke-miterlimit="10" stroke-linecap="round" stroke-linejoin="round"/>
<path d="M161.808 477.789C161.808 477.789 151.699 475.375 148.916 480.135C146.12 484.894 137.953 498.95 141.011 500.564C144.082 502.178 146.754 496.978 146.754 496.978L161.808 477.789Z" fill="white" stroke="#263238" stroke-miterlimit="10" stroke-linecap="round" stroke-linejoin="round"/>
<path d="M203.155 492.219C203.155 492.219 193.018 496.054 182.44 494.398L170.94 498.219C170.94 498.219 160.83 503.199 156.133 500.689C151.437 498.178 168.116 492.633 168.116 492.633C168.116 492.633 179.341 487.763 175.994 486.604C172.648 485.446 159.976 485.653 157.497 487.57C155.004 489.487 148.489 501.861 143.779 501.158C139.068 500.454 145.762 493.709 147.456 491.115C149.15 488.522 152.938 478.176 160.624 477.734C168.309 477.307 194.189 478.631 194.189 478.631L224.614 475.375L231.79 492.715L203.155 492.219Z" fill="white" stroke="#263238" stroke-miterlimit="10" stroke-linecap="round" stroke-linejoin="round"/>
<path d="M219.036 496.509C220.51 497.433 222.59 498.026 224.835 496.426C224.835 496.426 228.126 497.861 230.358 495.405C232.575 492.95 232.782 471.541 226.625 469.126C224.848 468.437 220.427 468.506 219.697 470.989C219.697 470.989 215.868 469.678 215.221 473.775C214.615 477.638 218.444 481.238 217.163 492.343C216.97 493.984 217.714 495.681 219.036 496.509Z" fill="#92E3A9" stroke="#263238" stroke-miterlimit="10" stroke-linecap="round" stroke-linejoin="round"/>
<path opacity="0.3" d="M219.036 496.509C220.51 497.433 222.59 498.026 224.835 496.426C224.835 496.426 228.126 497.861 230.358 495.405C232.575 492.95 232.782 471.541 226.625 469.126C224.848 468.437 220.427 468.506 219.697 470.989C219.697 470.989 215.868 469.678 215.221 473.775C214.615 477.638 218.444 481.238 217.163 492.343C216.97 493.984 217.714 495.681 219.036 496.509Z" fill="black" stroke="#263238" stroke-miterlimit="10" stroke-linecap="round" stroke-linejoin="round"/>
<path d="M226.047 491.515C226.047 491.515 226.226 482.232 222.411 474.589" stroke="#263238" stroke-miterlimit="10" stroke-linecap="round" stroke-linejoin="round"/>
<path d="M370.859 483.735C369.84 491.584 368.683 500.081 367.361 509.31H249.131L249.696 494.053C242.63 495.764 228.898 494.715 228.898 494.715V472.161C237.245 467.43 238.485 468.754 238.485 468.754C238.485 468.754 238.912 413.713 243.911 399.974C246.032 394.153 249.751 390.001 253.69 387.09V387.076C254.93 386.152 256.183 385.352 257.423 384.662C257.492 384.621 257.547 384.593 257.602 384.552C258.979 383.821 260.646 383.048 262.546 382.248C262.712 382.179 262.891 382.11 263.07 382.041C281.581 374.468 321.978 365.681 359.62 381.793C362.251 382.924 383.737 393.201 385.569 408.058C386.616 416.528 380.859 458.656 370.859 483.735Z" fill="#F4B11B"/>
<path opacity="0.2" d="M352.127 415.879L340.337 470.685C338.505 469.237 333.23 469.14 326.522 469.775C327.996 468.133 329.194 466.354 330.09 464.423C347.912 425.798 351.81 416.652 352.127 415.879Z" fill="black"/>
<path opacity="0.2" d="M373.668 476.093C370.252 488.287 368.751 499.392 367.36 509.31H249.13L250.218 491.736C257.587 490.687 270.52 489.611 283.949 487.225C285.657 494.329 284.266 500.068 284.266 500.068C284.266 500.068 338.643 506.827 356.892 502.427C362.098 501.171 366.809 493.888 370.844 483.859C371.822 481.417 372.759 478.81 373.668 476.093Z" fill="black"/>
<path opacity="0.3" d="M239.889 469.788C239.889 469.788 237.244 467.429 228.884 472.161V494.715C228.884 494.715 242.657 494.219 248.07 491.294C252.725 494.177 251.899 441.385 252.725 412.955C245.976 414.817 245.439 427.673 244.392 439.771C242.946 456.449 239.889 469.788 239.889 469.788Z" fill="black"/>
<path d="M370.859 483.735C369.84 491.584 368.683 500.081 367.361 509.31H249.131L249.696 494.053C242.63 495.764 228.898 494.715 228.898 494.715V472.161C237.245 467.43 238.485 468.754 238.485 468.754C238.485 468.754 238.912 413.713 243.911 399.974C246.032 394.153 249.751 390.001 253.69 387.09V387.076C254.93 386.152 256.183 385.352 257.423 384.662C257.492 384.621 257.547 384.593 257.602 384.552C258.979 383.821 260.646 383.048 262.546 382.248C262.712 382.179 262.891 382.11 263.07 382.041C281.581 374.468 321.978 365.681 359.62 381.793C362.251 382.924 383.737 393.201 385.569 408.058C386.616 416.528 380.859 458.656 370.859 483.735Z" stroke="#263238" stroke-miterlimit="10" stroke-linecap="round" stroke-linejoin="round"/>
<path d="M385.568 408.058C385.61 408.389 385.651 408.775 385.665 409.203C386.271 419.797 380.514 459.774 370.845 483.859C366.809 493.888 362.099 501.171 356.892 502.426C338.643 506.827 284.266 500.068 284.266 500.068C284.266 500.068 286.966 488.894 280.203 478.41C280.203 478.41 333.588 465.333 340.337 470.685L352.154 415.824" stroke="#263238" stroke-miterlimit="10" stroke-linecap="round" stroke-linejoin="round"/>
<path d="M344.056 473.665C344.056 473.665 349.124 475.692 353.518 481.79" stroke="#263238" stroke-miterlimit="10" stroke-linecap="round" stroke-linejoin="round"/>
<path d="M208.045 475.637C208.045 475.637 203.073 474.589 201.048 476.851C198.927 479.224 190.346 492.177 193.28 494.674C196.214 497.157 202.178 483.514 202.178 483.514L208.045 475.637Z" fill="white" stroke="#263238" stroke-miterlimit="10" stroke-linecap="round" stroke-linejoin="round"/>
<path d="M218.058 475.403C218.058 475.403 206.998 473.03 204.519 476.41C202.04 479.789 188.101 497.267 196.778 497.833L210.634 482.272L218.058 475.403Z" fill="white" stroke="#263238" stroke-miterlimit="10" stroke-linecap="round" stroke-linejoin="round"/>
<path d="M243.043 493.998C243.043 493.998 231.68 496.481 227.066 497.378C222.452 498.274 213.885 504.261 208.83 501.889C203.762 499.516 225.386 490.729 225.386 490.729L232.823 487.735L243.043 493.998Z" fill="#BFBFBF" stroke="#263238" stroke-miterlimit="10" stroke-linecap="round" stroke-linejoin="round"/>
<path d="M252.243 425.908C252.408 421.59 252.56 417.272 252.725 412.955" stroke="#263238" stroke-miterlimit="10" stroke-linecap="round" stroke-linejoin="round"/>
<path d="M249.13 509.31C251.238 483.197 252.023 431.784 252.023 431.784" stroke="#263238" stroke-miterlimit="10" stroke-linecap="round" stroke-linejoin="round"/>
<path d="M284.266 479.9H245.081C245.081 479.9 214.684 470.768 209.615 477.872C204.547 484.976 193.735 495.805 196.779 497.833C199.823 499.861 212.659 485.142 212.659 485.142L223.802 485.252C223.802 485.252 214.34 489.377 212.315 491.405C210.29 493.432 205.897 499.185 208.266 500.206C210.635 501.226 218.058 493.777 218.058 493.777C218.058 493.777 229.201 491.074 231.914 492.425C234.614 493.777 245.426 499.199 259.956 495.129L289.858 498.854L284.266 479.9Z" fill="white" stroke="#263238" stroke-miterlimit="10" stroke-linecap="round" stroke-linejoin="round"/>
<path d="M348.064 434.819C346.989 428.556 346.934 422.1 347.94 415.824" stroke="#263238" stroke-miterlimit="10" stroke-linecap="round" stroke-linejoin="round"/>
<path d="M356.947 401.919C356.947 401.919 375.954 376.84 385.568 408.058" stroke="#263238" stroke-miterlimit="10" stroke-linecap="round" stroke-linejoin="round"/>
<path d="M276.222 476.81C277.421 475.541 279.28 474.451 281.869 475.458C281.869 475.458 284.707 473.251 287.461 475.072C290.23 476.892 295.725 497.584 290.367 501.461C288.825 502.578 284.514 503.613 283.191 501.378C283.191 501.378 279.817 503.599 278.164 499.791C276.622 496.205 279.431 491.763 275.437 481.321C274.845 479.776 275.148 477.955 276.222 476.81Z" fill="#F4B11B"/>
<path opacity="0.3" d="M276.548 476.992C277.747 475.723 279.606 474.633 282.195 475.64C282.195 475.64 285.033 473.433 287.787 475.254C290.556 477.075 296.051 497.766 290.694 501.643C289.151 502.76 284.84 503.795 283.518 501.56C283.518 501.56 280.143 503.781 278.49 499.974C276.948 496.387 279.758 491.945 275.763 481.503C275.171 479.958 275.474 478.137 276.548 476.992Z" fill="black"/>
<path d="M276.222 476.81C277.421 475.541 279.28 474.451 281.869 475.458C281.869 475.458 284.707 473.251 287.461 475.072C290.23 476.892 295.725 497.584 290.367 501.461C288.825 502.578 284.514 503.613 283.191 501.378C283.191 501.378 279.817 503.599 278.164 499.791C276.622 496.205 279.431 491.763 275.437 481.321C274.845 479.776 275.148 477.955 276.222 476.81Z" stroke="#263238" stroke-miterlimit="10" stroke-linecap="round" stroke-linejoin="round"/>
<path d="M284.927 487.556C285.382 490.77 285.492 494.039 285.037 497.267" stroke="#263238" stroke-miterlimit="10" stroke-linecap="round" stroke-linejoin="round"/>
<path d="M302.144 425.604C302.061 427.08 300.794 428.211 299.306 428.129C297.833 428.046 296.703 426.777 296.786 425.287C296.869 423.797 298.136 422.68 299.623 422.763C301.111 422.859 302.24 424.128 302.144 425.604Z" fill="white" stroke="#263238" stroke-miterlimit="10" stroke-linecap="round" stroke-linejoin="round"/>
<path d="M300.216 467.264C300.133 468.74 298.866 469.871 297.378 469.788C295.905 469.706 294.775 468.436 294.858 466.947C294.94 465.471 296.208 464.339 297.695 464.422C299.169 464.505 300.298 465.774 300.216 467.264Z" fill="white" stroke="#263238" stroke-miterlimit="10" stroke-linecap="round" stroke-linejoin="round"/>
<path d="M324.815 374.592L322.845 346.796L294.128 353.459L292.599 375.778C290.781 375.999 289.059 376.261 287.379 376.523L294.403 393.38L308.135 395.187L330.09 374.923C328.299 374.785 326.536 374.675 324.815 374.592Z" fill="white"/>
<path d="M293.701 363.294C293.894 383.062 316.964 377.006 323.341 357.252L322.831 346.796L294.114 353.459L293.701 363.294Z" fill="#263238"/>
<path d="M324.815 374.592L322.845 346.796L294.128 353.459L292.599 375.778C290.781 375.999 289.059 376.261 287.379 376.523L294.403 393.38L308.135 395.187L330.09 374.923C328.299 374.785 326.536 374.675 324.815 374.592Z" stroke="#263238" stroke-miterlimit="10" stroke-linecap="round" stroke-linejoin="round"/>
<path d="M276.112 323.331C276.112 323.331 265.631 305.15 264.074 295.563C259.281 265.946 280.63 275.947 280.63 275.947C280.63 275.947 295.725 262.414 314.526 264.787C333.326 267.16 338.284 275.174 350.928 280.085C350.928 280.085 341.425 328.38 329.263 339.209C317.101 350.038 276.112 323.331 276.112 323.331Z" fill="#263238" stroke="#263238" stroke-miterlimit="10" stroke-linecap="round" stroke-linejoin="round"/>
<path d="M281.635 280.333C281.635 280.333 276.911 268.829 288.894 260.028" stroke="#263238" stroke-miterlimit="10" stroke-linecap="round" stroke-linejoin="round"/>
<path d="M302.268 273.422C316.303 267.201 322.556 277.602 338.229 280.333" stroke="#BFBFBF" stroke-miterlimit="10"/>
<path d="M291.428 280.334C292.667 278.706 294.265 277.354 295.973 276.25" stroke="#BFBFBF" stroke-miterlimit="10"/>
<path d="M305.835 284.844C305.835 284.844 311.909 278.995 323.961 286.596C330.558 290.748 335.998 291.342 335.998 291.342" stroke="#BFBFBF" stroke-miterlimit="10"/>
<path d="M324.401 297.48C306.923 297.936 288.894 290.031 288.894 290.031C272.614 299.867 275.038 315.855 275.038 315.855C278.757 354.066 283.784 364.232 301.606 364.232C319.319 364.232 333.918 344.975 335.075 317.414C328.34 317.731 324.401 297.48 324.401 297.48Z" fill="white" stroke="#263238" stroke-miterlimit="10" stroke-linecap="round" stroke-linejoin="round"/>
<path d="M333.588 315.854C334.565 314.585 335.819 313.827 337.169 313.827C340.336 313.827 342.692 317.993 341.562 323.124C340.46 328.145 338.987 332.422 335.819 332.422C334.331 332.422 333.271 331.498 332.568 329.994" fill="white"/>
<path d="M333.588 315.854C334.565 314.585 335.819 313.827 337.169 313.827C340.336 313.827 342.692 317.993 341.562 323.124C340.46 328.145 338.987 332.422 335.819 332.422C334.331 332.422 333.271 331.498 332.568 329.994" stroke="#263238" stroke-miterlimit="10" stroke-linecap="round" stroke-linejoin="round"/>
<path d="M298.866 334.615C298.866 334.615 301 337.54 296.91 339.733C292.819 341.926 289.555 341.885 288.508 339.374C287.461 336.864 292.007 315.951 292.007 315.951" stroke="#263238" stroke-linecap="round" stroke-linejoin="round"/>
<path d="M291.332 319.275C289.128 318.158 280.299 314.296 271.939 319.565L272.476 327.676C272.476 327.676 275.561 329.373 282.641 329.373C285.836 329.373 288.067 329.028 289.541 328.656" stroke="#263238" stroke-linecap="round" stroke-linejoin="round"/>
<path d="M298.646 319.565L301.207 328.021C301.207 328.021 302.254 329.401 309.347 329.401C316.441 329.401 318.768 327.704 318.768 327.704L318.562 319.593C318.562 319.593 308.273 313.482 298.646 319.565Z" stroke="#263238" stroke-linecap="round" stroke-linejoin="round"/>
<path d="M291.896 319.565H298.645" stroke="#263238" stroke-linecap="round" stroke-linejoin="round"/>
<path d="M293.329 347.403C293.329 347.403 298.838 349.224 304.554 347.058C309.182 345.32 311.537 341.789 311.537 341.789" stroke="#263238" stroke-linecap="round" stroke-linejoin="round"/>
<path d="M304.554 311.564C313.41 307.909 317.322 312.296 317.322 312.296" stroke="#263238" stroke-linecap="round" stroke-linejoin="round"/>
<path d="M281.181 311.206C284.28 309.716 287.971 310.144 290.657 312.296" stroke="#263238" stroke-linecap="round" stroke-linejoin="round"/>
<path d="M308.08 317.73C308.906 317.73 309.485 319.041 309.485 320.724C309.485 322.393 308.796 323.717 307.997 323.717C307.198 323.717 306.606 322.338 306.606 320.724C306.634 319.096 307.253 317.73 308.08 317.73Z" fill="#263238"/>
<path d="M286.084 317.358C286.883 317.358 287.475 318.669 287.475 320.352C287.475 322.021 286.787 323.345 285.988 323.345C285.189 323.345 284.597 321.966 284.597 320.352C284.638 318.738 285.285 317.358 286.084 317.358Z" fill="#263238"/>
<path d="M271.388 302.129C271.704 303.743 272.104 305.371 272.765 306.874" stroke="#BFBFBF" stroke-miterlimit="10"/>
<path d="M281.966 283.907C273.261 281.561 269.818 286.803 270.465 295.066" stroke="#BFBFBF" stroke-miterlimit="10"/>
<path d="M291.18 374.482L301.786 393.601L327.252 373.475L335.076 374.578L318.603 403.754C317.969 404.857 316.537 405.216 315.463 404.54L301.373 395.643L290.382 402.374C288.977 403.23 287.159 402.333 286.98 400.705L284.252 375.806L291.18 374.482Z" fill="#F4B11B"/>
<path opacity="0.3" d="M289.72 373.695L301.262 392.939L327.17 372.454L334.979 373.681L318.079 403.078C317.446 404.181 316.013 404.54 314.939 403.864L300.849 394.966L289.858 401.698C288.453 402.553 286.635 401.657 286.456 400.029L283.729 375.13L289.72 373.695Z" fill="black"/>
<path d="M291.18 374.482L301.786 393.601L327.252 373.475L335.076 374.578L318.603 403.754C317.969 404.857 316.537 405.216 315.463 404.54L301.373 395.643L290.382 402.374C288.977 403.23 287.159 402.333 286.98 400.705L284.252 375.806L291.18 374.482Z" stroke="#263238" stroke-miterlimit="10" stroke-linecap="round" stroke-linejoin="round"/>
<path d="M202.508 509.31H133.27C131.769 509.31 130.557 508.096 130.557 506.592V502.785C130.557 501.281 131.769 500.067 133.27 500.067H202.522V509.31H202.508Z" fill="#263238" stroke="#263238" stroke-miterlimit="10" stroke-linecap="round" stroke-linejoin="round"/>
<path d="M262.105 509.31H202.508V500.067L262.229 504.013C263.22 504.082 263.992 504.909 263.992 505.902V507.434C263.992 508.468 263.151 509.31 262.105 509.31Z" fill="#F4B11B" stroke="#263238" stroke-miterlimit="10" stroke-linecap="round" stroke-linejoin="round"/>
<path d="M318.589 320.917L333.588 315.854C331.811 318.103 331.811 318.103 331.811 318.103" stroke="#263238" stroke-linecap="round" stroke-linejoin="round"/>
<path d="M414.588 338.188C414.588 338.188 397.33 285.424 440.73 281.713C484.129 278.016 489.239 318.517 493.22 338.823C496.333 354.7 525.972 383.738 503.026 405.409C479.075 428.032 420.759 420.487 417.412 388.318C414.065 356.149 417.109 349.569 414.588 338.188Z" fill="#263238" stroke="#263238" stroke-miterlimit="10" stroke-linecap="round" stroke-linejoin="round"/>
<path d="M465.218 346.589C465.218 346.589 463.318 369.998 475.383 390.125C475.383 390.125 459.144 395.422 442.203 390.387C442.906 384.165 442.561 377.889 441.184 371.778L440.605 369.226L452.919 358.563L465.218 346.589Z" fill="white"/>
<path d="M435.413 364.246C437.658 376.84 439.71 379.586 450.371 377.337C458.263 375.668 464.998 363.805 465.384 355.183C464.778 349.941 464.819 343.402 464.819 343.402L452.919 358.563L435.413 364.246Z" fill="#263238"/>
<path d="M465.218 346.589C465.218 346.589 463.318 369.998 475.383 390.125C475.383 390.125 459.144 395.422 442.203 390.387C442.906 384.165 442.561 377.889 441.184 371.778L440.605 369.226L452.919 358.563L465.218 346.589Z" stroke="#263238" stroke-miterlimit="10" stroke-linecap="round" stroke-linejoin="round"/>
<path d="M344.372 480.535C344.372 480.535 320.338 469.471 319.002 478.631C317.666 487.804 323.533 501.847 345.529 494.922L391.697 501.02C391.697 501.02 399.603 485.252 391.146 476.658C391.174 476.658 350.488 482.99 344.372 480.535Z" fill="white" stroke="#263238" stroke-miterlimit="10" stroke-linecap="round" stroke-linejoin="round"/>
<path d="M307.35 490.411C307.35 490.411 303.548 491.639 302.984 494.149C302.433 496.674 301.193 500.247 302.653 500.26C304.113 500.274 305.89 495.239 305.89 495.239L309.595 494.274L307.35 490.411Z" fill="white" stroke="#263238" stroke-miterlimit="10" stroke-linecap="round" stroke-linejoin="round"/>
<path d="M332.548 466.462L307.561 469.084L311.29 504.729L336.276 502.107L332.548 466.462Z" fill="white" stroke="#263238" stroke-miterlimit="10" stroke-linecap="round" stroke-linejoin="round"/>
<path d="M307.549 469.084L303.823 469.475L307.552 505.12L311.278 504.729L307.549 469.084Z" fill="#F4B11B" stroke="#263238" stroke-miterlimit="10" stroke-linecap="round" stroke-linejoin="round"/>
<path d="M325.806 461.291C322.817 461.608 320.655 464.284 320.958 467.278C320.972 467.402 321.013 467.526 321.027 467.65L322.294 467.512L323.63 467.374C323.602 467.25 323.561 467.126 323.547 467.002C323.382 465.443 324.512 464.05 326.068 463.884C327.624 463.719 329.015 464.85 329.181 466.409C329.291 467.443 328.809 468.409 328.024 468.988C328.189 469.568 328.699 470.313 330.131 470.616C331.288 469.485 331.963 467.871 331.784 466.147C331.467 463.153 328.781 460.974 325.806 461.291Z" fill="white" stroke="#263238" stroke-miterlimit="10" stroke-linecap="round" stroke-linejoin="round"/>
<path d="M312.239 476.465L320.834 475.555" stroke="#263238" stroke-miterlimit="10" stroke-linecap="round" stroke-linejoin="round"/>
<path d="M312.652 480.383L329.359 478.631" stroke="#263238" stroke-miterlimit="10" stroke-linecap="round" stroke-linejoin="round"/>
<path d="M313.066 484.314L321.412 483.445" stroke="#263238" stroke-miterlimit="10" stroke-linecap="round" stroke-linejoin="round"/>
<path d="M313.479 488.245L327.431 486.783" stroke="#263238" stroke-miterlimit="10" stroke-linecap="round" stroke-linejoin="round"/>
<path d="M313.892 492.177L322.239 491.294" stroke="#263238" stroke-miterlimit="10" stroke-linecap="round" stroke-linejoin="round"/>
<path d="M314.292 496.095L332.624 494.177" stroke="#263238" stroke-miterlimit="10" stroke-linecap="round" stroke-linejoin="round"/>
<path d="M314.705 500.026L323.299 499.129" stroke="#263238" stroke-miterlimit="10" stroke-linecap="round" stroke-linejoin="round"/>
<path d="M321.178 461.774C318.189 462.091 316.027 464.767 316.33 467.761C316.344 467.899 316.385 468.009 316.413 468.147L317.68 468.009L319.016 467.871C318.988 467.747 318.947 467.623 318.933 467.499C318.768 465.94 319.897 464.547 321.454 464.381C323.01 464.216 324.401 465.347 324.566 466.905C324.677 467.94 324.195 468.906 323.41 469.485C323.575 470.064 324.084 470.809 325.517 471.113C326.674 469.982 327.349 468.368 327.17 466.643C326.839 463.636 324.153 461.457 321.178 461.774Z" fill="white" stroke="#263238" stroke-miterlimit="10" stroke-linecap="round" stroke-linejoin="round"/>
<path d="M316.55 462.256C313.562 462.574 311.399 465.25 311.702 468.243C311.716 468.367 311.757 468.492 311.771 468.616L313.038 468.478L314.374 468.34C314.347 468.216 314.305 468.091 314.292 467.967C314.126 466.409 315.256 465.015 316.812 464.85C318.368 464.684 319.759 465.815 319.925 467.374C320.035 468.409 319.553 469.374 318.768 469.954C318.933 470.533 319.443 471.278 320.875 471.582C322.032 470.45 322.707 468.836 322.528 467.112C322.211 464.119 319.539 461.953 316.55 462.256Z" fill="white" stroke="#263238" stroke-miterlimit="10" stroke-linecap="round" stroke-linejoin="round"/>
<path d="M311.937 462.739C308.948 463.057 306.785 465.733 307.088 468.726C307.102 468.85 307.143 468.974 307.157 469.099L308.424 468.961L309.76 468.823C309.733 468.699 309.692 468.574 309.678 468.45C309.512 466.891 310.642 465.498 312.198 465.333C313.755 465.167 315.146 466.298 315.311 467.857C315.421 468.892 314.939 469.857 314.154 470.437C314.319 471.016 314.829 471.761 316.261 472.064C317.418 470.933 318.093 469.319 317.914 467.595C317.597 464.602 314.912 462.436 311.937 462.739Z" fill="white" stroke="#263238" stroke-miterlimit="10" stroke-linecap="round" stroke-linejoin="round"/>
<path d="M305.064 468.947C304.898 467.388 306.028 465.995 307.584 465.829C309.14 465.664 310.531 466.795 310.697 468.354C310.807 469.388 310.325 470.354 309.54 470.933C309.705 471.513 310.215 472.258 311.647 472.561C312.804 471.43 313.479 469.816 313.3 468.092C312.983 465.098 310.311 462.932 307.322 463.236C304.334 463.553 302.171 466.229 302.474 469.223C302.612 470.547 303.245 471.706 304.141 472.561L303.81 469.457L305.146 469.319C305.105 469.195 305.077 469.071 305.064 468.947Z" fill="white" stroke="#263238" stroke-miterlimit="10" stroke-linecap="round" stroke-linejoin="round"/>
<path d="M300.918 479.031C301.138 479.514 301.4 480.01 301.73 480.535C301.73 480.535 300.752 483.445 302.722 486.149C302.722 486.149 302.832 490.08 304.223 490.701C305.614 491.322 307.832 492.081 307.791 490.991C307.749 489.901 307.102 486.577 304.595 485.845C304.595 485.845 307.474 486.425 307.143 484.811C306.813 483.197 306.289 480.907 304.513 480.245L303.562 479.831C303.562 479.831 305.835 480.245 305.656 478.521C305.477 476.782 305.27 474.782 303.962 474.286C303.659 474.175 303.314 474.079 302.956 473.982C301.042 473.527 299.802 476.575 300.918 479.031Z" fill="white" stroke="#263238" stroke-miterlimit="10" stroke-linecap="round" stroke-linejoin="round"/>
<path d="M341.686 480.217C341.686 480.217 339 474.258 334.607 471.154C330.199 468.05 328.574 462.008 326.784 463.471C324.993 464.947 326.618 471.333 329.387 473.527C332.155 475.72 329.056 480.617 335.915 486.659" fill="white"/>
<path d="M341.686 480.217C341.686 480.217 339 474.258 334.607 471.154C330.199 468.05 328.574 462.008 326.784 463.471C324.993 464.947 326.618 471.333 329.387 473.527C332.155 475.72 329.056 480.617 335.915 486.659" stroke="#263238" stroke-miterlimit="10" stroke-linecap="round" stroke-linejoin="round"/>
<path d="M503.48 497.626C502.874 501.378 502.227 505.268 501.538 509.31H407.082C406.93 508.041 407.825 505.489 408.679 501.047C398.157 504.62 379.797 499.074 379.797 499.074C382.083 493.046 380.499 477.734 380.499 477.734L391.215 475.458C391.215 475.458 395.664 428.805 399.052 415.438C402.647 401.257 422.315 385.779 488.468 390.345C488.468 390.345 518.989 389.766 523.727 410.03C528.148 428.929 504.748 496.757 503.48 497.626Z" fill="#F4B11B"/>
<path opacity="0.2" d="M408.679 501.047C401.366 503.53 390.278 501.612 384.19 500.205C385.774 498.991 386.766 496.508 387.138 493.363C392.096 492.591 397.055 484.7 400.319 448.834C401.09 440.419 402.743 435.136 404.864 431.577C403.087 438.792 402.316 446.875 404.616 456.242C405.801 461.056 409.519 472.644 409.85 477.444C410.607 488.383 409.657 495.957 408.679 501.047Z" fill="black"/>
<path opacity="0.2" d="M503.467 497.64C502.875 501.392 502.227 505.282 501.539 509.31H407.082C408.776 504.123 412.935 479.431 407.068 464.422C406.834 463.815 427.356 455.18 441.102 458.711C499.362 473.678 479.295 425.453 495.933 416.679L481.581 473.058L473.744 475.555C490.713 476.603 485.809 502.082 485.809 502.082C493.77 503.378 500.326 499.819 503.467 497.64Z" fill="black"/>
<path d="M503.48 497.626C502.874 501.378 502.227 505.268 501.538 509.31H407.082C406.93 508.041 407.825 505.489 408.679 501.047C398.157 504.62 379.797 499.074 379.797 499.074C382.083 493.046 380.499 477.734 380.499 477.734L391.215 475.458C391.215 475.458 395.664 428.805 399.052 415.438C402.647 401.257 422.315 385.779 488.468 390.345C488.468 390.345 518.989 389.766 523.727 410.03C528.148 428.929 504.748 496.757 503.48 497.626Z" stroke="#263238" stroke-miterlimit="10" stroke-linecap="round" stroke-linejoin="round"/>
<path d="M382.221 475.099C382.221 475.099 385.802 477.017 386.973 485.445C388.144 493.874 386.339 501.13 381.67 501.019C377.001 500.909 376.189 499.074 377.125 497.336C378.062 495.598 380.128 493.267 378.571 486.052C376.616 477.017 372.594 477.831 372.594 477.831C372.594 477.831 377.952 472.699 382.221 475.099Z" fill="#92E3A9" stroke="#263238" stroke-miterlimit="10" stroke-linecap="round" stroke-linejoin="round"/>
<path opacity="0.2" d="M387.138 493.363C386.766 496.508 385.775 498.991 384.191 500.205C383.475 500.757 382.634 501.047 381.67 501.019C376.987 500.909 376.175 499.074 377.125 497.336C378.062 495.611 380.128 493.266 378.571 486.052C376.616 477.016 372.594 477.844 372.594 477.844C372.594 477.844 377.965 472.699 382.221 475.099C382.221 475.099 385.802 477.016 386.973 485.445C387.359 488.3 387.414 491.018 387.138 493.363Z" fill="black"/>
<path d="M472.201 373.475C472.201 373.475 448.456 380.689 437.644 376.84L435.399 391.283C435.399 391.283 445.895 400.457 479.57 389.187L472.201 373.475Z" fill="#F4B11B" stroke="#263238" stroke-miterlimit="10" stroke-linecap="round" stroke-linejoin="round"/>
<path d="M387.827 470.892C390.65 480.093 393.171 487.487 390.678 488.259C388.185 489.032 386.132 481.486 383.309 472.285C380.485 463.084 377.965 455.69 380.458 454.918C382.951 454.145 385.003 461.677 387.827 470.892Z" fill="#92E3A9" stroke="#263238" stroke-miterlimit="10" stroke-linecap="round" stroke-linejoin="round"/>
<path d="M382.951 471.113L387.468 469.72C386.807 467.54 386.187 465.485 385.581 463.636L381.091 465.016C381.642 466.892 382.276 468.933 382.951 471.113Z" fill="#263238"/>
<path d="M382.538 459.277C382.538 459.277 384.645 455.042 386.587 458.035C388.529 461.029 388.928 470.119 390.292 470.133" stroke="#263238" stroke-miterlimit="10" stroke-linecap="round" stroke-linejoin="round"/>
<path d="M410.553 414.21C408.831 419.493 406.448 425.19 404.864 431.577C403.087 438.792 402.316 446.876 404.616 456.242C405.801 461.056 409.52 472.644 409.85 477.444C410.608 488.383 409.657 495.957 408.679 501.047C407.825 505.489 406.93 508.041 407.082 509.31" stroke="#263238" stroke-miterlimit="10" stroke-linecap="round" stroke-linejoin="round"/>
<path d="M469.006 477.127C469.006 477.127 430.579 482.383 417.632 482.686C415.635 482.728 409.699 481.997 409.699 481.997L400.484 475.83C400.484 475.83 393.377 474.782 389.907 475.582L385.94 480.769C385.94 480.769 380.995 482.369 383.819 486.121C383.819 486.121 382.731 489.004 385.127 491.184C385.127 491.184 385.348 494.453 387.524 495.764C387.524 495.764 387.965 498.812 390.347 499.681C392.744 500.55 407.743 498.15 412.316 496.853C416.888 495.543 461.252 502.523 478.647 502.082C478.634 502.054 493.536 484.631 469.006 477.127Z" fill="white" stroke="#263238" stroke-miterlimit="10" stroke-linecap="round" stroke-linejoin="round"/>
<path d="M469.612 331.401C469.612 331.401 459.475 335.36 453.47 324.421C450.867 319.676 445.606 309.771 445.606 309.771C444.104 313.648 445.95 319.566 445.95 319.566C442.52 318.062 435.868 317.703 435.868 317.703C433.513 313.744 432.824 304.792 432.824 304.792C429.56 310.254 430.51 318.089 430.51 318.089C423.541 319.055 419.23 321.442 416.048 324.228C416.916 327.746 417.233 333.236 416.944 344.63C416.572 359.528 423.706 363.598 430.676 369.171C437.631 374.744 456.721 377.627 463.304 348.507C463.304 348.507 477.105 343.361 470.356 332.56C470.108 332.188 469.874 331.801 469.612 331.401Z" fill="white" stroke="#263238" stroke-miterlimit="10" stroke-linecap="round" stroke-linejoin="round"/>
<path d="M458.318 313.537C462.657 322.448 470.218 329.304 479.901 331.829" stroke="#BFBFBF" stroke-miterlimit="10"/>
<path d="M454.696 302.501C454.985 304.309 455.467 306.088 456.018 307.84" stroke="#BFBFBF" stroke-miterlimit="10"/>
<path d="M461.583 303.164C461.583 303.164 469.406 318.117 481.636 318.476" stroke="#BFBFBF" stroke-miterlimit="10"/>
<path d="M485.562 341.195C485.562 341.195 505.464 373.475 505.464 392.249" stroke="#BFBFBF" stroke-miterlimit="10"/>
<path d="M480.3 349.803C480.3 349.803 485.231 367.805 493.137 376.841" stroke="#BFBFBF" stroke-miterlimit="10"/>
<path d="M417.756 302.998C417.205 305.426 416.806 308.102 416.585 311.068" stroke="#BFBFBF" stroke-miterlimit="10"/>
<path d="M434.036 286.086C434.036 286.086 424.78 287.824 418.72 298.763" stroke="#BFBFBF" stroke-miterlimit="10"/>
<path d="M422.315 369.667C422.315 369.667 422.012 384.152 429.381 392.277" stroke="#BFBFBF" stroke-miterlimit="10"/>
<path d="M435.413 325.345C445.44 323.373 449.847 328.491 449.847 328.491" stroke="#263238" stroke-linecap="round" stroke-linejoin="round"/>
<path d="M418.679 329.58C420.91 327.304 423.995 326.077 427.177 326.187" stroke="#263238" stroke-linecap="round" stroke-linejoin="round"/>
<path d="M441.955 359.06C445.054 357.28 446.776 352.687 446.776 352.687L446.129 353.031C442.093 355.211 437.686 356.618 433.141 357.197C436.047 360.26 439.903 360.246 441.955 359.06Z" stroke="#263238" stroke-linecap="round" stroke-linejoin="round"/>
<path d="M429.656 349.472C428.347 349.306 424.615 347.541 424.298 345.003C424.202 344.244 424.753 343.554 425.565 342.947C428.802 340.574 430.744 336.822 430.455 332.822C430.441 332.532 430.427 332.367 430.427 332.367" stroke="#263238" stroke-linecap="round" stroke-linejoin="round"/>
<path d="M442.506 329.374C443.457 329.263 444.434 330.836 444.682 332.891C444.93 334.947 444.366 336.712 443.415 336.823C442.465 336.947 441.487 335.36 441.239 333.319C440.991 331.263 441.556 329.498 442.506 329.374Z" fill="#263238"/>
<path d="M425.951 335.319C426.199 337.333 425.648 339.071 424.711 339.181C423.775 339.292 422.824 337.761 422.576 335.733C422.329 333.719 422.879 331.981 423.816 331.87C424.739 331.76 425.703 333.305 425.951 335.319Z" fill="#263238"/>
<path d="M456.775 331.112C456.775 331.112 455.481 327.47 456.954 325.539" stroke="#263238" stroke-linecap="round" stroke-linejoin="round"/>
<path d="M503.467 497.64C500.327 499.819 493.77 503.378 485.81 502.082C485.81 502.082 490.699 476.603 473.744 475.555L481.567 473.058L495.919 416.679" stroke="#263238" stroke-miterlimit="10" stroke-linecap="round" stroke-linejoin="round"/>
<path d="M485.81 473.058C485.81 473.058 494.9 475.458 497.448 483.293" stroke="#263238" stroke-miterlimit="10" stroke-linecap="round" stroke-linejoin="round"/>
<path d="M448.718 382.317C457.354 382.317 465.921 380.372 473.786 376.827" stroke="#263238" stroke-miterlimit="10" stroke-linecap="round" stroke-linejoin="round"/>
<path d="M437.011 380.979C438.953 381.503 440.937 381.821 442.934 382.027" stroke="#263238" stroke-miterlimit="10" stroke-linecap="round" stroke-linejoin="round"/>
<path d="M475.728 397.146C478.179 396.277 480.755 395.27 483.441 394.098" stroke="#263238" stroke-miterlimit="10" stroke-linecap="round" stroke-linejoin="round"/>
<path d="M433.196 397.353C433.196 397.353 442.438 406.14 466.885 399.864" stroke="#263238" stroke-miterlimit="10" stroke-linecap="round" stroke-linejoin="round"/>
<path d="M441.184 441.013C441.184 441.013 442.63 462.229 458.332 470.119" stroke="#263238" stroke-miterlimit="10" stroke-linecap="round" stroke-linejoin="round"/>
<path d="M468.621 477.458C468.621 477.458 471.72 470.644 480.934 474.01C480.934 474.01 489.652 477.017 492.269 485.997C494.872 494.977 491.622 502.992 485.259 503.309C478.895 503.64 477.739 503.144 478.813 501.185C479.887 499.226 482.091 493.901 479.309 487.239C475.342 477.762 468.621 477.458 468.621 477.458Z" fill="#F4B11B"/>
<g opacity="0.2">
<path opacity="0.2" d="M468.621 477.458C468.621 477.458 471.72 470.644 480.934 474.01C480.934 474.01 489.652 477.017 492.269 485.997C494.872 494.977 491.622 502.992 485.259 503.309C478.895 503.64 477.739 503.144 478.813 501.185C479.887 499.226 482.091 493.901 479.309 487.239C475.342 477.762 468.621 477.458 468.621 477.458Z" fill="black"/>
</g>
<path d="M468.621 477.458C468.621 477.458 471.72 470.644 480.934 474.01C480.934 474.01 489.652 477.017 492.269 485.997C494.872 494.977 491.622 502.992 485.259 503.309C478.895 503.64 477.739 503.144 478.813 501.185C479.887 499.226 482.091 493.901 479.309 487.239C475.342 477.762 468.621 477.458 468.621 477.458Z" stroke="#263238" stroke-miterlimit="10" stroke-linecap="round" stroke-linejoin="round"/>
<path d="M46.6224 449.414C46.6224 449.414 41.8844 408.844 0 425.19C0 425.19 35.6451 424.928 41.664 455.497L47.2009 454.904L46.6224 449.414Z" fill="#92E3A9"/>
<path opacity="0.1" d="M46.6224 449.414C46.6224 449.414 41.8844 408.844 0 425.19C0 425.19 35.6451 424.928 41.664 455.497L47.2009 454.904L46.6224 449.414Z" fill="black"/>
<path d="M47.2009 448.724C47.2009 448.724 43.5786 405.464 35.6865 371.833C35.6865 371.833 59.7897 397.367 54.2804 445.455L47.2009 448.724Z" fill="#92E3A9"/>
<path opacity="0.1" d="M47.2009 448.724C47.2009 448.724 43.5786 405.464 35.6865 371.833C35.6865 371.833 59.7897 397.367 54.2804 445.455L47.2009 448.724Z" fill="black"/>
<path d="M44.8594 477.362C44.8594 477.362 37.9177 417.769 14.7925 397.312C14.7925 397.312 56.1535 407.616 50.0244 470.906L44.8594 477.362Z" fill="#92E3A9"/>
<path d="M52.1318 474.865C52.1318 474.865 62.2689 415.727 86.4546 396.539C86.4546 396.539 44.6116 404.609 47.3387 468.133L52.1318 474.865Z" fill="#92E3A9"/>
<path d="M73.3564 455.525H24.4614V464.036H26.0867V494.067C26.0867 502.482 32.9044 509.31 41.3061 509.31H56.498C64.8996 509.31 71.7174 502.482 71.7174 494.067V464.036H73.3426V455.525H73.3564Z" fill="white" stroke="#263238" stroke-miterlimit="10"/>
<path d="M58.1919 463.636C60.3681 463.636 62.5305 463.636 64.7066 463.636H58.1919Z" fill="white"/>
<path d="M58.1919 463.636C60.3681 463.636 62.5305 463.636 64.7066 463.636" stroke="#263238" stroke-miterlimit="10"/>
<path d="M32.7114 463.636C39.0058 463.636 45.2864 463.636 51.5808 463.636H32.7114Z" fill="white"/>
<path d="M32.7114 463.636C39.0058 463.636 45.2864 463.636 51.5808 463.636" stroke="#263238" stroke-miterlimit="10"/>
<path d="M238.855 471.844L226.322 369.626C225.922 366.384 222.975 363.75 219.738 363.75H205.359L221.969 477.734H233.718C236.955 477.72 239.255 475.086 238.855 471.844Z" fill="#F4B11B" stroke="#263238" stroke-miterlimit="10" stroke-linecap="round" stroke-linejoin="round"/>
<path d="M230.605 477.72H86.1789C82.9422 477.72 79.981 475.086 79.5953 471.844L67.0617 369.626C66.6622 366.384 68.9624 363.75 72.2129 363.75H216.639C219.876 363.75 222.837 366.384 223.223 369.626L235.756 471.844C236.156 475.086 233.842 477.72 230.605 477.72Z" fill="#263238"/>
<path opacity="0.1" d="M230.605 477.72H86.1789C82.9422 477.72 79.981 475.086 79.5953 471.844L67.0617 369.626C66.6622 366.384 68.9624 363.75 72.2129 363.75H216.639C219.876 363.75 222.837 366.384 223.223 369.626L235.756 471.844C236.156 475.086 233.842 477.72 230.605 477.72Z" fill="white"/>
<path d="M230.605 477.72H86.1789C82.9422 477.72 79.981 475.086 79.5953 471.844L67.0617 369.626C66.6622 366.384 68.9624 363.75 72.2129 363.75H216.639C219.876 363.75 222.837 366.384 223.223 369.626L235.756 471.844C236.156 475.086 233.842 477.72 230.605 477.72Z" stroke="#263238" stroke-miterlimit="10" stroke-linecap="round" stroke-linejoin="round"/>
<path d="M163.267 500.951L169.038 435.109C169.176 433.523 167.937 432.171 166.353 432.171H129.881C128.476 432.171 127.306 433.247 127.195 434.64L120.915 506.358C120.777 507.945 122.017 509.296 123.601 509.296H195.827C197.315 509.296 198.527 508.083 198.527 506.593C198.527 505.103 197.315 503.889 195.827 503.889H165.967C164.369 503.889 163.13 502.537 163.267 500.951Z" fill="#263238" stroke="#263238" stroke-miterlimit="10" stroke-linecap="round" stroke-linejoin="round"/>
<path d="M198.527 506.606C198.527 505.117 197.315 503.903 195.827 503.903H165.967C164.383 503.903 163.13 502.537 163.281 500.964L169.052 435.123C169.19 433.55 167.95 432.185 166.366 432.185C164.975 432.185 163.805 433.261 163.681 434.654L157.4 506.372C157.262 507.958 158.502 509.31 160.086 509.31H195.827C197.315 509.31 198.527 508.096 198.527 506.606Z" fill="#F4B11B" stroke="#263238" stroke-miterlimit="10" stroke-linecap="round" stroke-linejoin="round"/>
<path d="M32.9316 509.31H549.428" stroke="#263238" stroke-miterlimit="10" stroke-linecap="round" stroke-linejoin="round"/>
<path d="M514.871 258.8H487.71C484.184 258.8 481.333 261.656 481.333 265.187V278.416C481.333 281.948 484.184 284.803 487.71 284.803H494.803L496.869 297.011L507.75 284.803H514.843C518.369 284.803 521.22 281.948 521.22 278.416V265.187C521.262 261.656 518.397 258.8 514.871 258.8Z" fill="white" stroke="#263238" stroke-miterlimit="10" stroke-linecap="round" stroke-linejoin="round"/>
<path d="M473.248 219.665H446.087C442.562 219.665 439.71 222.521 439.71 226.052V239.281C439.71 242.812 442.562 245.668 446.087 245.668H453.181L458.552 257.876L466.127 245.668H473.221C476.747 245.668 479.598 242.812 479.598 239.281V226.052C479.639 222.521 476.774 219.665 473.248 219.665Z" fill="white" stroke="#263238" stroke-miterlimit="10" stroke-linecap="round" stroke-linejoin="round"/>
<path d="M420.414 233.391H394.769C391.435 233.391 388.736 236.094 388.736 239.433V251.931C388.736 255.269 391.435 257.973 394.769 257.973H401.476L408.473 269.505L413.72 257.973H420.428C423.761 257.973 426.461 255.269 426.461 251.931V239.433C426.433 236.094 423.734 233.391 420.414 233.391Z" fill="white" stroke="#263238" stroke-miterlimit="10" stroke-linecap="round" stroke-linejoin="round"/>
<path d="M404.079 242.73V244.233C404.079 246.082 403.184 247.103 401.366 247.103H400.512V251.448H398.694V239.86H401.366C403.184 239.86 404.079 240.867 404.079 242.73ZM400.512 241.516V245.433H401.366C401.944 245.433 402.261 245.171 402.261 244.344V242.605C402.261 241.778 401.944 241.516 401.366 241.516H400.512Z" fill="#263238"/>
<path d="M406.82 251.448H405.002V239.86H406.82V244.826H408.886V239.86H410.732V251.448H408.886V246.482H406.82V251.448Z" fill="#263238"/>
<path d="M417.453 242.73V244.233C417.453 246.082 416.557 247.103 414.739 247.103H413.885V251.448H412.067V239.86H414.739C416.557 239.86 417.453 240.867 417.453 242.73ZM413.885 241.516V245.433H414.739C415.318 245.433 415.635 245.171 415.635 244.344V242.605C415.635 241.778 415.318 241.516 414.739 241.516H413.885Z" fill="#263238"/>
<path d="M455.784 234.453V235.998C455.784 237.846 454.861 238.909 453.071 238.909C451.28 238.909 450.357 237.846 450.357 235.998V229.97C450.357 228.121 451.28 227.059 453.071 227.059C454.848 227.059 455.784 228.121 455.784 229.97V231.101H454.062V229.859C454.062 229.032 453.704 228.714 453.126 228.714C452.547 228.714 452.189 229.032 452.189 229.859V236.108C452.189 236.936 452.547 237.239 453.126 237.239C453.704 237.239 454.062 236.936 454.062 236.108V234.453H455.784Z" fill="#263238"/>
<path d="M460.15 232.342H462.368V233.639H460.15V235.887H458.856V233.625H456.638V232.328H458.856V230.094H460.15V232.342Z" fill="#263238"/>
<path d="M466.692 232.342H468.91V233.639H466.692V235.887H465.398V233.625H463.18V232.328H465.398V230.094H466.692V232.342Z" fill="#263238"/>
<path d="M488.564 273.078V271.312L495.919 268.595V270.374L490.864 272.181L495.919 273.988V275.768L488.564 273.078Z" fill="#263238"/>
<path d="M503.177 264.277H505.326L499.1 280.099H496.952L503.177 264.277Z" fill="#263238"/>
<path d="M506.332 275.795V274.016L511.386 272.209L506.332 270.402V268.622L513.686 271.34V273.105L506.332 275.795Z" fill="#263238"/>
</svg>
