<?xml version="1.0" encoding="utf-8"?>
<!-- Generator: Adobe Illustrator 24.0.1, SVG Export Plug-In . SVG Version: 6.00 Build 0)  -->
<svg version="1.1" id="Layer_1" xmlns="http://www.w3.org/2000/svg" xmlns:xlink="http://www.w3.org/1999/xlink" x="0px" y="0px"
	 viewBox="0 0 731.96 322.25" style="enable-background:new 0 0 731.96 322.25;" xml:space="preserve">
<style type="text/css">
	.st0{fill:#F3B01B;}
	.st1{fill:#282827;}
	.st2{fill:#F3BB38;}
	.st3{fill:#FFFFFF;}
	.st4{opacity:0.16;fill:#FFFFFF;}
</style>
<g>

	<g>
		<g>
			<path class="st0" d="M27.88,122.86c0,0-7.11,47.34,9.37,76.09c16.48,28.75,48.92,39.36,48.92,39.36s-8.07,60.14,38.37,79.45
				V121.08c0,0-22.28,25.51-47.18,33.99l-1.28-0.7C76.08,154.37,43.67,135.74,27.88,122.86z"/>
			<path class="st0" d="M46.62,136.91c0,33.82,12,92.18,73.4,92.18c0.26,0,0.52,0,0.79,0l3.74,6.73H70.03
				c0,0-53.4-25.27-39.87-114.04L46.62,136.91z"/>
			<path class="st1" d="M120.02,244.6l-21.75,4.46c0,36.87,24.44,55.09,24.44,55.09v11.63c0,0-39.7-12.51-36.53-77.48l35.54-3.95
				L120.02,244.6z"/>
			<path class="st2" d="M127.09,121.07v105.98c-0.67-0.07-1.33-0.14-1.97-0.25c-50.92-6.57-55.27-61.56-55.66-71.36
				c-0.04-0.88-0.04-1.37-0.04-1.48l11.24,2.88C103.6,147.83,127.09,121.07,127.09,121.07z"/>
			<path class="st3" d="M114.07,136.17c0,0,0.75,19.02,10.03,33.22l-2.57,13.08c0,0-21.36-15.27-18.58-39.13L114.07,136.17z"/>
			<path class="st3" d="M96.37,148.32c1.02,17.41,10.16,39.74,28.18,47.96v10.57c0,0-35.9-5.12-38.55-54.58L96.37,148.32z"/>
			<path class="st3" d="M125.13,226.81c-50.92-6.57-55.27-61.56-55.66-71.36c2.28,1.05,4.74,2.21,7.3,3.51
				c0,0,8.78,51.03,48.29,58.15C125.06,217.11,125.09,221.64,125.13,226.81z"/>
			<g>
				<path class="st1" d="M129.08,322.25l-5.63-1.42c-0.48-0.12-47.22-12.68-42.28-78.95c-8.09-2.11-26.09-8.69-40.02-27.45
					c-16.47-22.17-21.7-53.58-15.55-93.36l8.95,1.39c-5.75,37.2-1.12,66.27,13.76,86.41c15.82,21.42,38.15,24.91,38.38,24.95
					l4.29,0.63l-0.43,4.32c-4.93,47.87,18.36,65.42,29.48,71V121.88h9.06V322.25z"/>
			</g>
			<g>
				<path class="st1" d="M124.55,231.43c-28.34,0-62.57-36.81-62.57-82.52h9.06c0,42.61,31.97,73.46,53.51,73.46V231.43z"/>
			</g>
			<g>
				<path class="st1" d="M122.91,211.36c-1.59-0.62-38.97-15.65-40.69-61.47l9.05-0.34c1.5,39.93,34.58,53.23,34.91,53.36
					L122.91,211.36z"/>
			</g>
			<g>
				<path class="st1" d="M121.66,190.44c-22.27-18.41-22.61-49.84-22.61-51.17l9.06-0.03c0,0.28,0.37,28.56,19.33,44.22
					L121.66,190.44z"/>
			</g>
			<g>
				<path class="st0" d="M137.55,93.46c0,25.26-44.9,56.01-57.14,63.89c-1.94,1.25-3.05,1.94-3.05,1.94s-52.28-27.38-56.99-58.96
					c-4-26.75,13.73-49.92,40.51-56.4c4.87-1.19,10-1.82,15.37-1.82C106.29,42.11,137.55,64.23,137.55,93.46z"/>
				<path class="st4" d="M124.3,100.85c0,0-6.32,19.37-33.96,16.64l-12.99,15.49l-13.17-14.86c0,0-12.22,4.33-22.14-1.75
					c-9.92-6.07-8.1-33.11-8.1-33.11L124.3,100.85z"/>
				<path class="st4" d="M80.41,157.35c-1.94,1.25-3.05,1.94-3.05,1.94s-52.28-27.38-56.99-58.96c-4-26.75,13.73-49.92,40.51-56.4
					c0.39,2.57,0.54,4.15,0.54,4.15s-42.27,57.98,15.94,106.61C78.44,155.59,79.46,156.48,80.41,157.35z"/>
				<g>
					<path class="st1" d="M77.35,163.34l-1.75-0.89C12.66,130.46,13.6,94.71,16.93,80.83c5.91-24.67,31.32-42.58,60.43-42.58
						c29.11,0,54.52,17.91,60.43,42.6c3.33,13.89,4.26,49.63-58.68,81.61L77.35,163.34z M77.35,45.95
						c-25.17,0-47.93,15.77-52.94,36.67c-6.04,25.22,13.24,51.42,52.94,72.07c39.7-20.63,58.98-46.83,52.94-72.05
						C125.28,61.72,102.53,45.95,77.35,45.95z"/>
				</g>
				<g>
					<path class="st1" d="M154.7,40.36c-3.35,60.25-51.97,25.7-77.35,51.37c-25.38-25.7-74,8.88-77.35-51.37
						C12.45,59.7,53.17,55.18,77.35,81.07C101.57,55.18,142.25,59.73,154.7,40.36z"/>
				</g>
				<g>
					<path class="st3" d="M75.9,94.82c0,11.21-9.09,20.3-20.3,20.3c-11.21,0-20.3-9.09-20.3-20.3c0-11.21,9.09-20.3,20.3-20.3
						C66.81,74.51,75.9,83.6,75.9,94.82z"/>
					<path class="st1" d="M55.6,118.95c-13.31,0-24.13-10.83-24.13-24.14c0-13.31,10.83-24.13,24.13-24.13s24.14,10.83,24.14,24.13
						C79.73,108.12,68.9,118.95,55.6,118.95z M55.6,78.38c-9.06,0-16.43,7.37-16.43,16.43c0,9.06,7.37,16.43,16.43,16.43
						c9.06,0,16.43-7.37,16.43-16.43C72.03,85.75,64.66,78.38,55.6,78.38z"/>
				</g>
				<g>
					<path class="st3" d="M120.48,94.82c0,11.21-9.09,20.3-20.3,20.3c-11.21,0-20.3-9.09-20.3-20.3c0-11.21,9.09-20.3,20.3-20.3
						C111.39,74.51,120.48,83.6,120.48,94.82z"/>
					<g>
						<path class="st1" d="M99.11,118.95c-13.31,0-24.14-10.83-24.14-24.14c0-13.31,10.83-24.13,24.14-24.13
							c13.31,0,24.13,10.83,24.13,24.13C123.24,108.12,112.41,118.95,99.11,118.95z M99.11,78.38c-9.06,0-16.43,7.37-16.43,16.43
							c0,9.06,7.37,16.43,16.43,16.43c9.06,0,16.43-7.37,16.43-16.43C115.54,85.75,108.17,78.38,99.11,78.38z"/>
					</g>
				</g>
				<g>
					<g>
						<polygon class="st1" points="77.35,128.56 64.32,112.74 69.94,108.11 77.35,101.67 84.76,108.11 90.38,112.74 						"/>
					</g>
				</g>
				<path class="st1" d="M110.2,94.82c0,6.13-4.97,11.1-11.1,11.1c-6.13,0-11.1-4.97-11.1-11.1c0-6.13,4.97-11.1,11.1-11.1
					C105.24,83.72,110.2,88.69,110.2,94.82z"/>
				<path class="st1" d="M66.69,94.82c0,6.13-4.97,11.1-11.1,11.1c-6.13,0-11.1-4.97-11.1-11.1c0-6.13,4.97-11.1,11.1-11.1
					C61.73,83.72,66.69,88.69,66.69,94.82z"/>
				<circle class="st3" cx="93.5" cy="89.08" r="4.68"/>
				<circle class="st3" cx="49.99" cy="89.08" r="4.68"/>
				<polygon class="st1" points="77.35,109.82 74.04,113.98 77.35,124.04 78.68,115.94 				"/>
				<polygon class="st2" points="77.35,109.82 82.67,114.79 77.35,124.04 				"/>
			</g>
			<path class="st0" d="M148.16,242.38H11.48c-0.19,0-0.34-0.15-0.34-0.34v-10.26c0-0.19,0.15-0.34,0.34-0.34h136.68
				c0.19,0,0.34,0.15,0.34,0.34v10.26C148.5,242.22,148.35,242.38,148.16,242.38z"/>
		</g>
		<g>
			<g>
				<polygon class="st1" points="3.15,11.9 17.63,14.18 78.66,23.79 154.17,11.9 78.66,0 				"/>
				<polygon class="st0" points="17.63,42.03 17.63,46.42 20.56,46.42 20.56,14.82 17.63,14.18 				"/>
				<polygon class="st0" points="15.06,55.01 22.81,55.01 20.41,47.65 20.41,46.42 17.48,46.42 17.48,47.65 				"/>
				<path class="st0" d="M17.48,42.03c0,0-2.46,0.6-2.46,2.2c0,1.6,2.46,2.2,2.46,2.2V42.03z"/>
				<path class="st0" d="M20.41,42.03c0,0,2.46,0.6,2.46,2.2c0,1.6-2.46,2.2-2.46,2.2V42.03z"/>
			</g>
			<rect x="49.39" y="11.9" class="st1" width="58.54" height="23.73"/>
		</g>
	</g>
	<g>
		<g>
			<g>
				<g>
					<path class="st0" d="M191.31,102.56c-2.66-1.62-5.64-2.42-8.94-2.42s-6.11,1.03-8.43,3.08c-2.32,2.05-3.48,4.87-3.48,8.43v0.51
						c0,4.24,2.36,8.11,7.07,11.61c2.02,1.48,4.29,2.94,6.82,4.39c2.53,1.45,5.05,3,7.58,4.65c2.52,1.65,4.81,3.4,6.87,5.25
						c2.05,1.85,3.73,4.13,5.05,6.82c1.32,2.69,1.97,5.65,1.97,8.88v1.01c0,6.4-2.17,11.48-6.51,15.25
						c-4.34,3.77-9.71,5.66-16.11,5.66c-8.42,0-14.95-3.47-19.59-10.4v-5.45c1.75,3.84,4.33,6.95,7.73,9.34
						c3.4,2.39,7.63,3.58,12.67,3.58c5.05,0,9.43-1.62,13.13-4.85c3.7-3.23,5.55-7.54,5.55-12.93v-0.61c0-3.36-0.87-6.44-2.62-9.24
						c-1.75-2.79-3.94-5.08-6.57-6.87c-2.63-1.79-5.49-3.65-8.58-5.61c-3.1-1.95-5.96-3.77-8.58-5.45c-2.63-1.68-4.82-3.8-6.57-6.36
						c-1.75-2.56-2.62-5.35-2.62-8.38v-0.71c0-4.71,1.52-8.31,4.54-10.81c3.03-2.49,6.77-3.74,11.21-3.74
						c6.19,0,11.11,2.29,14.75,6.87v5.15C196.07,106.4,193.97,104.18,191.31,102.56z"/>
					<path class="st0" d="M183.18,176.96c-8.83,0-15.78-3.69-20.66-10.97l-0.22-0.32v-11.75l2.45,5.37c1.65,3.61,4.1,6.58,7.3,8.82
						c3.16,2.22,7.18,3.35,11.94,3.35c4.77,0,8.79-1.48,12.29-4.53c3.44-3.01,5.11-6.92,5.11-11.96v-0.61c0-3.1-0.82-5.98-2.43-8.56
						c-1.65-2.63-3.73-4.82-6.2-6.49c-2.62-1.78-5.47-3.64-8.55-5.58c-3.1-1.96-5.96-3.77-8.59-5.46c-2.76-1.77-5.1-4.03-6.93-6.72
						c-1.89-2.76-2.85-5.82-2.85-9.11v-0.71c0-5.09,1.69-9.06,5.01-11.8c3.25-2.68,7.3-4.03,12.03-4.03
						c6.57,0,11.87,2.47,15.75,7.35l0.28,0.35v10.6l-2.41-4.39c-1.43-2.61-3.4-4.69-5.85-6.18h0c-2.44-1.49-5.22-2.24-8.27-2.24
						c-3,0-5.48,0.9-7.58,2.76c-2.05,1.81-3.05,4.26-3.05,7.47v0.51c0,3.85,2.14,7.31,6.55,10.59c1.96,1.44,4.22,2.89,6.69,4.31
						c2.55,1.46,5.12,3.03,7.64,4.69c2.56,1.67,4.92,3.48,7.03,5.37c2.17,1.96,3.97,4.39,5.34,7.21c1.39,2.85,2.1,6.03,2.1,9.45
						v1.01c0,6.76-2.34,12.21-6.95,16.22C195.57,174.96,189.86,176.96,183.18,176.96z M164.87,164.89
						c4.41,6.4,10.41,9.52,18.31,9.52c6.05,0,11.19-1.8,15.27-5.34c4.09-3.54,6.07-8.22,6.07-14.28v-1.01
						c0-3.02-0.62-5.82-1.84-8.32c-1.23-2.53-2.83-4.69-4.76-6.43c-2-1.8-4.26-3.53-6.71-5.13c-2.48-1.62-5.01-3.17-7.51-4.61
						c-2.56-1.47-4.89-2.97-6.94-4.47c-5.04-3.74-7.59-8-7.59-12.65v-0.51c0-3.94,1.32-7.1,3.92-9.39c2.55-2.26,5.68-3.4,9.28-3.4
						c3.52,0,6.76,0.88,9.6,2.61l0,0c1.65,1,3.11,2.23,4.37,3.68v-0.61c-3.38-4.07-7.79-6.04-13.46-6.04
						c-4.12,0-7.61,1.16-10.4,3.45c-2.74,2.26-4.08,5.47-4.08,9.82v0.71c0,2.75,0.81,5.33,2.4,7.66c1.64,2.4,3.72,4.42,6.2,6.01
						c2.63,1.68,5.48,3.5,8.58,5.45c3.11,1.97,5.98,3.84,8.62,5.63c2.76,1.87,5.09,4.31,6.93,7.25c1.87,2.99,2.82,6.33,2.82,9.92
						v0.61c0,5.75-2.02,10.42-5.99,13.89c-3.93,3.43-8.63,5.16-13.97,5.16c-5.29,0-9.81-1.28-13.41-3.82
						c-2.23-1.57-4.14-3.45-5.71-5.63V164.89z"/>
				</g>
				<g>
					<path class="st0" d="M183.18,177.39c-8.98,0-16.05-3.75-21.01-11.16l-0.29-0.43v-13.84l3.26,7.16
						c1.61,3.54,4.02,6.45,7.15,8.65c3.09,2.17,7.03,3.27,11.69,3.27s8.59-1.45,12.01-4.43c3.34-2.92,4.97-6.73,4.97-11.64v-0.61
						c0-3.02-0.79-5.83-2.36-8.34c-1.62-2.58-3.66-4.72-6.07-6.35c-2.61-1.78-5.46-3.63-8.54-5.58c-3.1-1.96-5.96-3.77-8.59-5.46
						c-2.81-1.8-5.18-4.1-7.05-6.84c-1.94-2.83-2.92-5.98-2.92-9.35v-0.71c0-5.22,1.74-9.31,5.17-12.13
						c3.33-2.74,7.47-4.13,12.3-4.13c6.71,0,12.12,2.53,16.08,7.51l0.37,0.47v12.42l-3.21-5.85c-1.4-2.55-3.31-4.58-5.7-6.02v0
						c-2.37-1.44-5.08-2.17-8.05-2.17c-2.89,0-5.28,0.87-7.3,2.65c-1.96,1.73-2.91,4.07-2.91,7.15v0.51c0,3.7,2.09,7.06,6.38,10.24
						c1.95,1.43,4.19,2.87,6.65,4.28c2.55,1.46,5.13,3.04,7.66,4.7c2.58,1.69,4.96,3.5,7.08,5.41c2.21,2,4.04,4.47,5.44,7.34
						c1.42,2.91,2.14,6.15,2.14,9.63v1.01c0,6.89-2.39,12.45-7.1,16.54C195.77,175.35,189.97,177.39,183.18,177.39z M180.51,127.86
						c1.68,1.07,3.45,2.19,5.3,3.35c3.11,1.97,5.99,3.84,8.63,5.64c2.8,1.9,5.18,4.38,7.05,7.37c0.29,0.47,0.56,0.95,0.81,1.44
						c0-0.01-0.01-0.02-0.01-0.03c-1.21-2.48-2.77-4.6-4.66-6.3c-1.99-1.79-4.23-3.5-6.66-5.09c-2.48-1.62-5-3.16-7.49-4.6
						C182.46,129.06,181.46,128.46,180.51,127.86z M169.2,115.56c0.37,1.52,1.02,2.96,1.96,4.32c1.61,2.35,3.65,4.34,6.07,5.89
						c0.84,0.54,1.7,1.09,2.59,1.66c-1.17-0.75-2.28-1.51-3.31-2.27C172.6,122.25,170.16,119.03,169.2,115.56z"/>
					<path class="st0" d="M183.18,178.67c-9.44,0-16.86-3.95-22.08-11.73l-0.51-0.75v-20.14l5.71,12.54
						c1.52,3.33,3.78,6.06,6.73,8.13c2.87,2.02,6.56,3.04,10.95,3.04c4.34,0,7.99-1.35,11.16-4.11c3.05-2.66,4.53-6.15,4.53-10.67
						v-0.61c0-2.78-0.73-5.36-2.17-7.66c-1.52-2.43-3.44-4.44-5.71-5.97c-2.6-1.77-5.44-3.62-8.5-5.55c-3.1-1.96-5.97-3.77-8.6-5.47
						c-2.95-1.89-5.45-4.31-7.42-7.19c-2.09-3.05-3.14-6.44-3.14-10.07v-0.71c0-5.63,1.9-10.04,5.63-13.12
						c3.57-2.93,7.98-4.42,13.11-4.42c7.12,0,12.87,2.69,17.09,8l0.65,0.82v17.88L195,110.67c-1.28-2.35-3.05-4.22-5.24-5.55
						c-2.17-1.32-4.65-1.99-7.39-1.99c-2.57,0-4.68,0.76-6.45,2.33c-1.69,1.49-2.47,3.46-2.47,6.19v0.51c0,3.27,1.92,6.28,5.86,9.22
						c1.92,1.41,4.12,2.82,6.52,4.2c2.57,1.47,5.17,3.06,7.72,4.73c2.63,1.73,5.07,3.58,7.23,5.53c2.34,2.11,4.27,4.71,5.73,7.74
						c1.51,3.08,2.27,6.52,2.27,10.19v1.01c0,7.27-2.54,13.16-7.54,17.51C196.37,176.52,190.29,178.67,183.18,178.67z
						 M163.16,165.41l0.07,0.1c4.71,7.03,11.42,10.6,19.95,10.6c6.48,0,11.99-1.94,16.39-5.76c4.42-3.83,6.66-9.08,6.66-15.57v-1.01
						c0-3.28-0.68-6.33-2.01-9.07c-1.33-2.73-3.06-5.07-5.15-6.96c-2.07-1.86-4.4-3.64-6.92-5.29c-2.51-1.64-5.07-3.21-7.6-4.66
						c-2.49-1.43-4.76-2.89-6.77-4.36c-4.65-3.45-6.9-7.14-6.9-11.28v-0.51c0-3.47,1.09-6.12,3.34-8.11c2.26-2,4.93-2.97,8.15-2.97
						c3.21,0,6.14,0.79,8.71,2.36c2.58,1.57,4.66,3.76,6.16,6.51l0.8,1.47l-0.09-7.09c-3.71-4.66-8.78-7.03-15.08-7.03
						c-4.52,0-8.38,1.29-11.48,3.84c-3.12,2.56-4.7,6.31-4.7,11.13v0.71c0,3.1,0.91,6,2.7,8.62c1.78,2.6,4.03,4.78,6.69,6.48
						c2.63,1.69,5.49,3.5,8.59,5.45c3.09,1.96,5.95,3.81,8.58,5.6c2.56,1.74,4.73,4,6.44,6.73c1.7,2.72,2.56,5.75,2.56,9.02v0.61
						c0,5.31-1.77,9.43-5.41,12.6c-3.66,3.19-7.86,4.74-12.85,4.74c-4.93,0-9.12-1.18-12.43-3.51c-3.32-2.34-5.87-5.42-7.58-9.17
						l-0.82-1.79V165.41z M201.17,146.24c-0.23-0.45-0.48-0.9-0.76-1.34c-1.78-2.83-4.03-5.18-6.69-6.99
						c-2.63-1.79-5.5-3.66-8.6-5.62l-5.29-3.35c0,0,0,0,0,0l0,0l1.37-2.17c0.94,0.59,1.92,1.18,2.93,1.76
						c2.52,1.45,5.06,3,7.56,4.64c2.48,1.62,4.77,3.37,6.82,5.2c2.01,1.82,3.67,4.07,4.95,6.7c0,0,0,0,0,0L201.17,146.24z
						 M179.13,128.5L179.13,128.5c-0.01-0.01-0.01-0.01-0.01-0.01l-2.58-1.65c-2.57-1.65-4.73-3.74-6.44-6.24
						c-1.01-1.48-1.73-3.07-2.14-4.74l2.48-0.65c0.88,3.19,3.18,6.18,6.84,8.9c1.01,0.74,2.1,1.48,3.24,2.22L179.13,128.5z"/>
				</g>
			</g>
			<g>
				<g>
					<path class="st0" d="M265.23,130.64c2.86-1.95,6.34-2.93,10.45-2.93c4.11,0,7.71,1.48,10.8,4.44c3.1,2.96,4.65,6.97,4.65,12.02
						v30.1h-3.23v-30.1c0-3.91-1.28-7.15-3.84-9.75c-2.56-2.59-5.64-3.89-9.24-3.89c-3.6,0-6.8,1.35-9.59,4.04
						c-2.8,2.69-4.19,5.82-4.19,9.39v30.3h-3.23v-30.3c0-3.63-1.28-6.78-3.84-9.44c-2.56-2.66-5.65-3.99-9.29-3.99
						s-6.8,1.35-9.49,4.04c-2.7,2.69-4.04,5.82-4.04,9.39v30.3h-3.23v-45.45h3.23v6.36c1.34-2.02,3.34-3.77,6.01-5.25
						c2.66-1.48,5.42-2.22,8.28-2.22s5.6,0.99,8.23,2.98c2.63,1.99,4.54,4.56,5.76,7.73C260.44,135.18,262.37,132.59,265.23,130.64z
						"/>
					<path class="st0" d="M292.42,175.55h-5.79v-31.38c0-3.59-1.13-6.48-3.47-8.84c-2.33-2.36-5.06-3.51-8.33-3.51
						c-3.29,0-6.13,1.2-8.7,3.68c-2.56,2.46-3.8,5.23-3.8,8.47v31.58h-5.79v-31.58c0-3.32-1.14-6.12-3.48-8.55
						c-2.33-2.42-5.06-3.59-8.37-3.59c-3.31,0-6.12,1.2-8.58,3.66c-2.47,2.46-3.66,5.24-3.66,8.48v31.58h-5.8v-48.01h5.8v4.2
						c1.15-1.07,2.53-2.05,4.1-2.93c5.73-3.19,12.27-3.4,17.91,0.86c2.02,1.53,3.67,3.4,4.91,5.6c1.2-2.26,2.93-4.16,5.16-5.68l0,0
						c3.06-2.09,6.82-3.15,11.17-3.15c4.43,0,8.36,1.62,11.69,4.8c3.35,3.2,5.04,7.56,5.04,12.95V175.55z M289.19,172.99h0.67
						v-28.81c0-4.73-1.39-8.36-4.25-11.09c-2.88-2.75-6.12-4.09-9.92-4.09c-3.83,0-7.1,0.91-9.73,2.7l0,0
						c-2.64,1.8-4.38,4.13-5.3,7.1l-1.1,3.52l-1.32-3.44c-1.12-2.92-2.92-5.33-5.34-7.17c-4.15-3.13-8.75-3.32-13.02-1.65
						c1.51-0.53,3.12-0.8,4.81-0.8c3.98,0,7.42,1.48,10.22,4.38c2.78,2.9,4.2,6.37,4.2,10.33v29.02h0.67v-29.02
						c0-3.92,1.54-7.39,4.59-10.32c3.02-2.92,6.55-4.4,10.48-4.4c3.94,0,7.35,1.44,10.15,4.27c2.79,2.83,4.21,6.41,4.21,10.65
						V172.99z M229.2,172.99h0.67v-29.02c0-3.91,1.49-7.37,4.42-10.3c0.6-0.6,1.23-1.14,1.88-1.63c-1.69,1.14-3.01,2.44-3.95,3.85
						l-2.35,3.53v-9.33h-0.67V172.99z"/>
				</g>
				<g>
					<path class="st0" d="M292.85,175.98h-6.65v-31.8c0-3.47-1.09-6.26-3.34-8.54c-2.25-2.28-4.87-3.38-8.03-3.38
						c-3.17,0-5.92,1.16-8.41,3.56c-2.47,2.38-3.67,5.05-3.67,8.16v32.01h-6.65v-32.01c0-3.2-1.1-5.9-3.36-8.26
						c-2.24-2.33-4.88-3.46-8.06-3.46c-3.19,0-5.9,1.16-8.28,3.54s-3.54,5.05-3.54,8.18v32.01h-6.65v-48.86h6.65v3.68
						c1.02-0.85,2.18-1.64,3.47-2.36c5.88-3.28,12.6-3.46,18.37,0.88c1.87,1.42,3.42,3.12,4.65,5.09c1.2-2.04,2.85-3.77,4.93-5.18
						l0,0c0,0,0,0,0,0l0,0c3.13-2.14,6.97-3.22,11.41-3.22c4.54,0,8.57,1.66,11.99,4.92c3.43,3.28,5.17,7.74,5.17,13.25V175.98z
						 M229.63,140.57v1.04c0.08-0.52,0.19-1.03,0.33-1.54L229.63,140.57z"/>
					<path class="st0" d="M294.13,177.26h-9.21v-33.09c0-3.11-0.97-5.61-2.97-7.64c-2-2.02-4.32-3-7.12-3
						c-2.82,0-5.28,1.05-7.52,3.2c-2.2,2.13-3.27,4.49-3.27,7.24v33.29h-9.21v-33.29c0-2.86-0.98-5.27-3-7.37
						c-1.99-2.07-4.32-3.07-7.14-3.07c-2.84,0-5.25,1.03-7.38,3.16c-2.13,2.13-3.16,4.51-3.16,7.28v33.29h-9.22v-51.43h9.22v2.43
						c0.5-0.33,1.02-0.64,1.57-0.94c6.74-3.75,13.94-3.4,19.76,0.98c1.47,1.11,2.76,2.4,3.86,3.84c1.15-1.51,2.56-2.84,4.22-3.97
						c3.36-2.29,7.44-3.45,12.14-3.45c4.88,0,9.21,1.77,12.87,5.27c3.7,3.54,5.57,8.31,5.57,14.18V177.26z M287.48,174.69h4.09
						v-30.52c0-5.15-1.61-9.29-4.78-12.33c-3.17-3.02-6.9-4.56-11.1-4.56c-4.18,0-7.77,1.01-10.69,3c-1.92,1.31-3.45,2.91-4.55,4.78
						l-1.07,1.82l-1.11-1.8c-1.13-1.83-2.59-3.42-4.33-4.74c-5.04-3.8-11.07-4.08-16.97-0.79c-1.21,0.68-2.32,1.42-3.27,2.22
						l-2.1,1.76v-5.14h-4.09v46.3h4.09v-30.73c0-3.48,1.28-6.46,3.91-9.09c2.63-2.63,5.64-3.91,9.19-3.91
						c3.55,0,6.49,1.26,8.98,3.86c2.5,2.6,3.72,5.59,3.72,9.15v30.73h4.09v-30.73c0-3.48,1.33-6.45,4.06-9.09
						c2.74-2.64,5.78-3.92,9.3-3.92c3.51,0,6.44,1.23,8.94,3.76c2.5,2.53,3.71,5.62,3.71,9.45V174.69z M230.89,141.81l-2.55-0.2
						v-1.43l5-7.5l-2.15,7.73C231.07,140.87,230.97,141.33,230.89,141.81z"/>
				</g>
			</g>
			<g>
				<g>
					<path class="st0" d="M360.62,128.82v45.45h-3.23v-11.31c-1.88,3.84-4.71,6.87-8.48,9.09c-3.77,2.22-7.81,3.33-12.12,3.33
						c-6.6,0-12.26-2.34-16.97-7.02c-4.71-4.68-7.07-10.28-7.07-16.81s2.36-12.14,7.07-16.81c4.71-4.68,10.37-7.02,16.97-7.02
						c4.31,0,8.43,1.14,12.37,3.43c3.94,2.29,6.68,5.32,8.23,9.09v-11.41H360.62z M315.98,151.65c0,5.66,2.07,10.55,6.21,14.7
						c4.14,4.14,9.05,6.21,14.74,6.21c5.69,0,10.55-2.07,14.6-6.21c4.04-4.14,6.06-9.05,6.06-14.75s-2.04-10.62-6.11-14.8
						c-4.07-4.18-8.94-6.26-14.59-6.26c-5.65,0-10.55,2.11-14.69,6.31C318.05,141.06,315.98,145.99,315.98,151.65z"/>
					<path class="st0" d="M336.79,176.66c-6.92,0-12.93-2.49-17.87-7.39c-4.94-4.91-7.45-10.87-7.45-17.72
						c0-6.86,2.51-12.82,7.45-17.72s10.95-7.39,17.87-7.39c4.52,0,8.89,1.21,13.01,3.6c2.57,1.5,4.68,3.31,6.3,5.43v-7.92h5.8v48.01
						h-5.8v-8.12c-1.76,2.27-3.95,4.19-6.55,5.72C345.6,175.48,341.31,176.66,336.79,176.66z M336.79,128.99
						c-6.3,0-11.56,2.17-16.06,6.65s-6.69,9.68-6.69,15.91s2.19,11.43,6.69,15.91c4.5,4.47,9.76,6.65,16.06,6.65
						c4.06,0,7.91-1.06,11.46-3.16c3.54-2.08,6.22-4.96,7.98-8.55l2.43-4.96v15.55h0.67V130.1h-0.67v16.62l-0.93-2.28
						c0.76,2.25,1.14,4.63,1.14,7.15c0,6.01-2.16,11.27-6.42,15.64c-4.28,4.38-9.5,6.6-15.51,6.6c-6.01,0-11.28-2.22-15.65-6.59
						c-4.37-4.37-6.59-9.62-6.59-15.6c0-5.98,2.22-11.26,6.58-15.69c4.37-4.44,9.62-6.7,15.61-6.7c5.99,0,11.21,2.24,15.51,6.65
						c1.82,1.86,3.25,3.88,4.31,6.04l-0.5-1.23c-1.43-3.49-4.02-6.34-7.69-8.47C344.79,130.09,340.84,128.99,336.79,128.99z
						 M336.89,131.82c-5.35,0-9.85,1.94-13.78,5.93c-3.94,4-5.85,8.54-5.85,13.9c0,5.35,1.91,9.86,5.84,13.79
						c3.93,3.93,8.45,5.84,13.84,5.84c5.38,0,9.85-1.91,13.68-5.82c3.83-3.93,5.69-8.46,5.69-13.85c0-5.39-1.88-9.94-5.75-13.9
						C346.71,133.74,342.23,131.82,336.89,131.82z"/>
				</g>
				<g>
					<path class="st0" d="M336.79,177.09c-7.04,0-13.15-2.53-18.17-7.52c-5.03-4.99-7.57-11.05-7.57-18.03s2.55-13.04,7.57-18.03
						c5.02-4.99,11.14-7.52,18.17-7.52c4.59,0,9.04,1.23,13.23,3.66c2.24,1.3,4.13,2.84,5.66,4.6v-7.15h6.65v48.86h-6.65v-7.35
						c-1.65,1.91-3.62,3.55-5.91,4.89C345.76,175.89,341.39,177.09,336.79,177.09z M336.89,132.25c-5.23,0-9.63,1.9-13.47,5.8
						c-3.85,3.91-5.72,8.36-5.72,13.6c0,5.23,1.87,9.65,5.71,13.49c3.84,3.84,8.27,5.71,13.53,5.71c5.26,0,9.63-1.86,13.37-5.7
						c3.75-3.84,5.57-8.28,5.57-13.55c0-5.27-1.84-9.72-5.63-13.6C346.49,134.13,342.11,132.25,336.89,132.25z M358.91,155.91
						c-0.01,0.03-0.01,0.06-0.02,0.09L358.91,155.91z"/>
					<path class="st0" d="M336.79,178.37c-7.39,0-13.8-2.65-19.08-7.89c-5.27-5.24-7.95-11.61-7.95-18.94s2.68-13.7,7.95-18.94
						c5.27-5.23,11.69-7.89,19.08-7.89c4.82,0,9.49,1.29,13.87,3.83c1.36,0.79,2.61,1.67,3.74,2.64v-5.36h9.22v51.43h-9.22v-5.52
						c-1.21,1.07-2.54,2.04-3.98,2.88C346.21,177.11,341.62,178.37,336.79,178.37z M336.79,127.28c-6.69,0-12.5,2.4-17.27,7.15
						c-4.78,4.74-7.2,10.5-7.2,17.12s2.42,12.38,7.2,17.12c4.77,4.74,10.58,7.15,17.27,7.15c4.37,0,8.52-1.14,12.33-3.39
						c2.15-1.26,4.03-2.82,5.59-4.62l2.25-2.61v9.51h4.09v-46.3h-4.09v9.29l-2.25-2.57c-1.45-1.66-3.25-3.12-5.34-4.34
						C345.38,128.46,341.15,127.28,336.79,127.28z M336.94,172.12c-5.62,0-10.35-1.99-14.44-6.08c-4.1-4.1-6.09-8.8-6.09-14.4
						s1.99-10.33,6.09-14.5c4.1-4.16,8.8-6.18,14.39-6.18c5.59,0,10.26,2.01,14.29,6.13c4.03,4.13,5.99,8.87,5.99,14.5
						s-1.94,10.35-5.93,14.45C347.23,170.14,342.55,172.12,336.94,172.12z M336.89,133.53c-4.86,0-8.97,1.77-12.56,5.42
						c-3.6,3.66-5.36,7.81-5.36,12.7c0,4.88,1.75,8.99,5.34,12.58c3.59,3.59,7.72,5.34,12.63,5.34c4.89,0,8.97-1.74,12.46-5.31
						c3.5-3.59,5.21-7.73,5.21-12.66s-1.72-9.08-5.26-12.71C345.82,135.28,341.75,133.53,336.89,133.53z M360.15,156.24l-2.52-0.49
						l0.57,0.07l-0.55-0.14l1.51,0.28l-0.25-0.05l1.26,0.24L360.15,156.24z M359.86,156.12l0.3,0.07L359.86,156.12z"/>
				</g>
			</g>
			<g>
				<g>
					<path class="st0" d="M401.52,130.54c-3.57,0-6.72,1.35-9.44,4.04c-2.73,2.69-4.09,5.82-4.09,9.39v30.3h-3.23v-45.45h3.23v6.77
						c1.21-2.29,3.1-4.18,5.66-5.66c2.56-1.48,5.42-2.22,8.58-2.22c3.16,0,6.19,1.08,9.09,3.23v4.04
						C408.35,132.02,405.09,130.54,401.52,130.54z"/>
					<path class="st0" d="M389.27,175.55h-5.79v-48.01h5.79v4.15c1.05-1.08,2.3-2.04,3.73-2.87c5.53-3.2,12.9-3.5,19.08,1.09
						l0.52,0.38v7.77l-2.19-2.18c-2.74-2.74-5.65-4.07-8.89-4.07c-3.24,0-6.04,1.2-8.54,3.67c-2.5,2.47-3.71,5.24-3.71,8.48V175.55z
						 M386.04,172.99h0.67v-29.02c0-1.69,0.28-3.3,0.84-4.82l-0.84,1.59V130.1h-0.67V172.99z M402.23,128.99
						c-2.92,0-5.59,0.69-7.94,2.05c-2.2,1.28-3.88,2.89-4.98,4.81c0.54-0.76,1.16-1.49,1.87-2.19c2.97-2.93,6.44-4.41,10.34-4.41
						c3.04,0,5.89,0.98,8.51,2.92v-0.58C407.53,129.87,404.91,128.99,402.23,128.99z"/>
				</g>
				<g>
					<path class="st0" d="M389.69,175.98h-6.65v-48.86h6.65v3.57c0.91-0.82,1.95-1.57,3.09-2.24c5.68-3.28,13.24-3.57,19.55,1.12
						l0.69,0.51v9.02l-2.92-2.91c-2.66-2.65-5.46-3.94-8.59-3.94c-3.13,0-5.82,1.16-8.24,3.54c-2.41,2.38-3.58,5.06-3.58,8.18
						V175.98z"/>
					<path class="st0" d="M390.98,177.26h-9.21v-51.43h9.21v2.24c0.38-0.25,0.76-0.49,1.16-0.73c6.73-3.87,14.75-3.42,20.96,1.2
						l1.21,0.9v12.75l-5.1-5.1c-2.4-2.4-4.92-3.57-7.68-3.57c-2.77,0-5.17,1.04-7.34,3.17c-2.16,2.13-3.2,4.51-3.2,7.27V177.26z
						 M384.33,174.69h4.09v-30.73c0-3.48,1.3-6.45,3.97-9.09c2.67-2.63,5.66-3.92,9.14-3.92s6.59,1.41,9.49,4.32l0.73,0.73v-5.28
						l-0.17-0.13c-5.38-4-12.33-4.39-18.14-1.03c-1.06,0.62-2.03,1.32-2.87,2.08l-2.14,1.94v-5.18h-4.09V174.69z"/>
				</g>
			</g>
			<g>
				<g>
					<path class="st0" d="M448.18,172.04v2.83c-4.78,0-8.85-1.6-12.22-4.8c-3.37-3.2-5.05-7.29-5.05-12.27v-47.26h3.23v18.38h13.94
						v2.83h-13.94v26.06c0,4.11,1.36,7.51,4.09,10.2C440.95,170.7,444.27,172.04,448.18,172.04z"/>
					<path class="st0" d="M449.46,176.16h-1.28c-5.1,0-9.51-1.73-13.1-5.15c-3.61-3.43-5.45-7.87-5.45-13.2v-48.55h5.79v18.38h13.94
						v5.39h-13.94v24.78c0,3.78,1.21,6.83,3.71,9.29c2.5,2.47,5.45,3.67,9.04,3.67h1.28V176.16z M432.19,111.82v45.98
						c0,4.66,1.52,8.37,4.65,11.34c2.84,2.7,6.14,4.15,10.06,4.41v-0.27c-3.7-0.27-6.91-1.74-9.57-4.36
						c-2.97-2.93-4.47-6.67-4.47-11.11v-27.34h13.94v-0.26h-13.94v-18.38H432.19z"/>
				</g>
				<g>
					<path class="st0" d="M449.89,176.58h-1.71c-5.21,0-9.72-1.77-13.4-5.27c-3.7-3.51-5.58-8.06-5.58-13.51v-48.97h6.65v18.38
						h13.94v6.24h-13.94v24.35c0,3.66,1.17,6.61,3.58,8.98c2.41,2.39,5.27,3.54,8.74,3.54h1.71V176.58z"/>
					<path class="st0" d="M451.17,177.87h-2.99c-5.55,0-10.35-1.89-14.28-5.62c-3.97-3.76-5.98-8.62-5.98-14.44v-50.25h9.21v18.38
						h13.94v8.81h-13.94v23.07c0,3.31,1.05,5.95,3.2,8.07c2.16,2.14,4.73,3.17,7.84,3.17h2.99V177.87z M430.48,110.12v47.69
						c0,5.08,1.74,9.31,5.18,12.58c3.43,3.26,7.65,4.92,12.52,4.92h0.43v-3.68h-0.43c-3.83,0-6.98-1.28-9.65-3.92
						c-2.67-2.63-3.97-5.87-3.97-9.9v-25.63h13.94v-3.68h-13.94v-18.38H430.48z"/>
				</g>
			</g>
			<g>
				<g>
					<path class="st0" d="M506.65,175.38h-1.11c-6.94,0-13.4-1.82-19.39-5.45c-5.99-3.63-10.73-8.47-14.19-14.49
						c-3.47-6.02-5.2-12.44-5.2-19.24c0-10.7,3.87-19.91,11.61-27.62c7.74-7.71,17-11.56,27.77-11.56c7.21,0,14.04,1.89,20.5,5.65
						v3.74c-6.33-4.31-13.16-6.46-20.5-6.46c-9.9,0-18.38,3.55-25.45,10.66c-7.07,7.1-10.61,15.62-10.61,25.55
						c0,9.93,3.54,18.47,10.61,25.6c7.07,7.14,15.55,10.7,25.45,10.7c7.34,0,14.17-2.15,20.5-6.46v3.73
						C520.52,173.49,513.85,175.38,506.65,175.38z"/>
					<path class="st0" d="M506.65,176.66h-1.11c-7.14,0-13.89-1.9-20.05-5.64c-6.15-3.73-11.08-8.76-14.64-14.95
						c-3.56-6.19-5.37-12.88-5.37-19.88c0-11.01,4.04-20.6,11.99-28.53c7.95-7.92,17.6-11.94,28.67-11.94
						c7.4,0,14.51,1.96,21.15,5.83l0.64,0.37v6.9l-2-1.37c-6.08-4.14-12.74-6.24-19.78-6.24c-9.49,0-17.75,3.46-24.54,10.28
						c-6.79,6.82-10.23,15.11-10.23,24.65c0,9.54,3.44,17.85,10.24,24.7c6.79,6.85,15.04,10.32,24.53,10.32
						c7.05,0,13.7-2.1,19.78-6.24l2-1.37v6.88l-0.61,0.37C521.02,174.69,514.07,176.66,506.65,176.66z M506.14,98.29
						c-10.37,0-19.41,3.76-26.86,11.19s-11.24,16.41-11.24,26.71c0,6.55,1.69,12.8,5.03,18.6c3.34,5.81,7.96,10.53,13.74,14.04
						c5.76,3.49,12.06,5.27,18.72,5.27h1.11c6.69,0,12.99-1.72,18.71-5.1v-0.67c-5.96,3.58-12.42,5.4-19.22,5.4
						c-10.2,0-19.07-3.73-26.36-11.08c-7.28-7.35-10.98-16.27-10.98-26.5s3.69-19.13,10.98-26.45c7.29-7.32,16.15-11.03,26.35-11.03
						c6.8,0,13.25,1.82,19.22,5.4v-0.65C519.31,100.01,512.85,98.29,506.14,98.29z"/>
				</g>
				<g>
					<path class="st0" d="M506.65,177.09h-1.11c-7.22,0-14.04-1.92-20.28-5.7c-6.21-3.77-11.19-8.85-14.79-15.1
						c-3.6-6.25-5.43-13.02-5.43-20.09c0-11.12,4.08-20.82,12.12-28.83c8.03-8,17.78-12.06,28.97-12.06
						c7.47,0,14.66,1.98,21.36,5.89l0.85,0.49v7.95l-2.67-1.82c-6.01-4.09-12.59-6.17-19.54-6.17c-9.38,0-17.53,3.42-24.23,10.15
						c-6.71,6.74-10.11,14.93-10.11,24.34c0,9.42,3.4,17.63,10.11,24.4c6.7,6.77,14.86,10.2,24.23,10.2
						c6.96,0,13.53-2.07,19.54-6.16l2.67-1.82v7.92l-0.81,0.5C521.17,175.1,514.15,177.09,506.65,177.09z"/>
					<path class="st0" d="M506.65,178.37h-1.11c-7.46,0-14.5-1.98-20.94-5.89c-6.4-3.88-11.53-9.12-15.23-15.56
						c-3.71-6.45-5.6-13.42-5.6-20.73c0-11.47,4.21-21.48,12.5-29.74c8.28-8.25,18.34-12.44,29.88-12.44
						c7.71,0,15.11,2.04,22.01,6.06l1.49,0.86v11.11l-4.67-3.18c-5.8-3.95-12.13-5.94-18.82-5.94c-9.02,0-16.87,3.29-23.33,9.78
						c-6.46,6.49-9.74,14.38-9.74,23.44c0,9.07,3.28,16.98,9.74,23.5c6.45,6.51,14.3,9.82,23.32,9.82c6.7,0,13.03-2,18.82-5.94
						l4.67-3.18v11.06l-1.43,0.87C521.64,176.32,514.39,178.37,506.65,178.37z M506.14,96.58c-10.84,0-20.28,3.93-28.07,11.69
						c-7.79,7.76-11.74,17.15-11.74,27.92c0,6.85,1.77,13.4,5.26,19.45c3.48,6.06,8.31,10.99,14.34,14.65
						c6.03,3.66,12.63,5.51,19.61,5.51h1.11c7.25,0,14.05-1.93,20.22-5.72l0.2-0.13v-4.78l-0.67,0.45
						c-6.22,4.24-13.04,6.39-20.26,6.39c-9.73,0-18.19-3.56-25.14-10.58c-6.96-7.02-10.48-15.53-10.48-25.3
						c0-9.77,3.53-18.26,10.48-25.25c6.96-6.99,15.42-10.53,25.14-10.53c7.22,0,14.03,2.15,20.26,6.39l0.67,0.45v-4.79l-0.21-0.12
						C520.36,98.5,513.39,96.58,506.14,96.58z"/>
				</g>
			</g>
			<g>
				<g>
					<path class="st0" d="M555.23,168.16c-4.65-4.81-6.97-10.42-6.97-16.81c0-6.39,2.36-11.93,7.07-16.61
						c4.71-4.68,10.39-7.02,17.02-7.02c6.63,0,12.28,2.34,16.97,7.02c4.68,4.68,7.02,10.23,7.02,16.66c0,6.43-2.29,12.04-6.87,16.81
						c-4.58,4.78-10.13,7.17-16.66,7.17h-0.91C565.43,175.38,559.87,172.97,555.23,168.16z M593.1,151.6
						c0-5.69-2.04-10.62-6.11-14.8c-4.08-4.18-8.94-6.26-14.6-6.26c-5.65,0-10.55,2.11-14.69,6.31c-4.14,4.21-6.21,9.14-6.21,14.8
						c0,5.66,2.07,10.55,6.21,14.7c4.14,4.14,9.05,6.21,14.75,6.21c5.69,0,10.55-2.07,14.59-6.21
						C591.08,162.2,593.1,157.29,593.1,151.6z"/>
					<path class="st0" d="M572.8,176.66h-0.91c-6.8,0-12.71-2.56-17.59-7.61l0,0c-4.86-5.04-7.33-10.99-7.33-17.71
						c0-6.72,2.51-12.61,7.45-17.52s10.97-7.39,17.93-7.39c6.95,0,12.96,2.49,17.87,7.39c4.91,4.91,7.4,10.82,7.4,17.57
						c0,6.74-2.43,12.7-7.23,17.7C585.58,174.11,579.67,176.66,572.8,176.66z M572.35,128.99c-6.25,0-11.68,2.24-16.12,6.65
						c-4.44,4.41-6.69,9.69-6.69,15.7c0,6.02,2.22,11.38,6.61,15.92l0,0c4.44,4.6,9.59,6.83,15.74,6.83h0.91
						c6.22,0,11.37-2.22,15.74-6.78c4.32-4.51,6.51-9.87,6.51-15.93c0-6.04-2.24-11.34-6.65-15.76
						C584,131.23,578.59,128.99,572.35,128.99z M572.45,173.83c-6.01,0-11.28-2.22-15.65-6.59c-4.37-4.37-6.59-9.62-6.59-15.6
						c0-5.98,2.21-11.26,6.58-15.69c4.37-4.44,9.62-6.7,15.61-6.7c5.99,0,11.21,2.24,15.51,6.65c4.3,4.41,6.47,9.69,6.47,15.69
						s-2.16,11.27-6.42,15.64C583.69,171.61,578.47,173.83,572.45,173.83z M572.4,131.82c-5.35,0-9.85,1.94-13.78,5.93
						c-3.93,4-5.84,8.54-5.84,13.9c0,5.35,1.91,9.86,5.84,13.79c3.93,3.93,8.45,5.84,13.84,5.84c5.38,0,9.85-1.91,13.67-5.82
						c3.83-3.93,5.7-8.46,5.7-13.85s-1.88-9.94-5.75-13.9C582.22,133.74,577.74,131.82,572.4,131.82z"/>
				</g>
				<g>
					<path class="st0" d="M572.8,177.09h-0.91c-6.92,0-12.94-2.61-17.89-7.75c-4.94-5.12-7.45-11.17-7.45-18
						c0-6.84,2.55-12.83,7.57-17.82c5.02-4.99,11.15-7.52,18.23-7.52c7.07,0,13.18,2.53,18.17,7.52c4.99,4.99,7.52,11,7.52,17.87
						c0,6.86-2.47,12.91-7.34,18C585.81,174.5,579.79,177.09,572.8,177.09z M572.4,132.25c-5.23,0-9.63,1.9-13.47,5.8
						c-3.85,3.91-5.72,8.36-5.72,13.6c0,5.23,1.87,9.65,5.71,13.49s8.27,5.71,13.54,5.71c5.26,0,9.63-1.86,13.37-5.7
						c3.75-3.84,5.57-8.28,5.57-13.55c0-5.27-1.84-9.72-5.63-13.6C582,134.13,577.62,132.25,572.4,132.25z"/>
					<path class="st0" d="M572.8,178.37h-0.91c-7.28,0-13.61-2.74-18.81-8.14c-5.18-5.36-7.81-11.72-7.81-18.89
						c0-7.19,2.68-13.49,7.95-18.73c5.27-5.23,11.71-7.89,19.13-7.89c7.42,0,13.84,2.66,19.08,7.89c5.24,5.24,7.9,11.56,7.9,18.78
						c0,7.2-2.59,13.55-7.7,18.88C586.48,175.65,580.15,178.37,572.8,178.37z M572.35,127.28c-6.72,0-12.55,2.4-17.32,7.15
						c-4.78,4.74-7.2,10.43-7.2,16.91c0,6.49,2.39,12.24,7.09,17.11c4.71,4.88,10.42,7.36,16.97,7.36h0.91
						c6.62,0,12.33-2.46,16.97-7.31c4.64-4.84,6.99-10.59,6.99-17.11c0-6.51-2.4-12.22-7.15-16.97
						C584.87,129.69,579.07,127.28,572.35,127.28z M572.45,172.12c-5.62,0-10.35-1.99-14.45-6.08c-4.1-4.1-6.08-8.8-6.08-14.4
						s1.99-10.33,6.09-14.5c4.1-4.16,8.8-6.18,14.39-6.18c5.59,0,10.26,2.01,14.29,6.13c4.03,4.13,5.99,8.87,5.99,14.5
						s-1.94,10.35-5.94,14.45C582.74,170.14,578.07,172.12,572.45,172.12z M572.4,133.53c-4.86,0-8.97,1.77-12.56,5.42
						c-3.6,3.66-5.35,7.82-5.35,12.7c0,4.88,1.75,8.99,5.34,12.58c3.59,3.59,7.72,5.34,12.63,5.34c4.89,0,8.97-1.74,12.45-5.31
						c3.5-3.59,5.21-7.73,5.21-12.66s-1.72-9.08-5.26-12.71C581.33,135.28,577.26,133.53,572.4,133.53z"/>
				</g>
			</g>
			<g>
				<g>
					<path class="st0" d="M663.29,98.52v75.74h-3.23v-11.01c-2.02,3.7-4.95,6.65-8.79,8.83c-3.84,2.19-7.78,3.28-11.82,3.28
						c-6.67,0-12.34-2.34-17.02-7.02c-4.68-4.68-7.02-10.28-7.02-16.81s2.34-12.14,7.02-16.81c4.68-4.68,10.35-7.02,17.02-7.02
						c4.17,0,8.2,1.11,12.07,3.33c3.87,2.22,6.72,5.19,8.53,8.89V98.52H663.29z M618.65,151.6c0,5.69,2.02,10.6,6.06,14.75
						c4.04,4.14,8.9,6.21,14.6,6.21c5.69,0,10.6-2.07,14.74-6.21c4.14-4.14,6.21-9.04,6.21-14.7c0-5.65-2.07-10.59-6.21-14.8
						c-4.14-4.21-9.04-6.31-14.69-6.31s-10.52,2.09-14.59,6.26C620.69,140.97,618.65,145.9,618.65,151.6z"/>
					<path class="st0" d="M639.46,176.66c-6.99,0-13.01-2.49-17.92-7.39c-4.91-4.91-7.4-10.87-7.4-17.72
						c0-6.85,2.49-12.82,7.4-17.72c4.91-4.91,10.93-7.39,17.92-7.39c4.38,0,8.65,1.18,12.71,3.5c2.65,1.52,4.86,3.39,6.62,5.59
						V97.24h5.8v78.31h-5.8v-8.09c-1.86,2.28-4.16,4.21-6.87,5.75C647.89,175.5,643.7,176.66,639.46,176.66z M639.46,128.99
						c-6.28,0-11.7,2.24-16.11,6.65c-4.48,4.47-6.65,9.67-6.65,15.91c0,6.23,2.17,11.44,6.65,15.91c4.41,4.41,9.83,6.65,16.11,6.65
						c3.79,0,7.56-1.05,11.18-3.12c3.61-2.06,6.4-4.86,8.3-8.33l2.41-4.41v14.75h0.67V99.81h-0.67v45.64l-2.43-4.95
						c-1.7-3.45-4.4-6.26-8.02-8.34C647.23,130.06,643.38,128.99,639.46,128.99z M639.31,173.83c-6.02,0-11.24-2.22-15.51-6.6
						c-4.26-4.37-6.42-9.63-6.42-15.64c0-6.01,2.18-11.29,6.47-15.69c4.3-4.41,9.52-6.65,15.51-6.65c5.98,0,11.23,2.25,15.61,6.7
						c4.37,4.44,6.58,9.72,6.58,15.69c0,5.98-2.22,11.23-6.59,15.6C650.58,171.62,645.32,173.83,639.31,173.83z M639.36,131.82
						c-5.35,0-9.82,1.92-13.67,5.87c-3.87,3.96-5.75,8.51-5.75,13.9c0,5.39,1.86,9.92,5.69,13.85c3.82,3.92,8.3,5.82,13.68,5.82
						c5.31,0,9.96-1.96,13.83-5.84c3.93-3.93,5.84-8.44,5.84-13.79c0-5.28-1.97-9.96-5.85-13.9
						C649.21,133.76,644.7,131.82,639.36,131.82z"/>
				</g>
				<g>
					<path class="st0" d="M639.46,177.09c-7.1,0-13.23-2.53-18.22-7.52c-4.99-4.99-7.52-11.05-7.52-18.02s2.53-13.04,7.52-18.02
						c4.99-4.99,11.12-7.52,18.22-7.52c4.46,0,8.8,1.2,12.92,3.56c2.33,1.34,4.32,2.94,5.97,4.79V96.81H665v79.16h-6.65v-7.37
						c-1.75,1.94-3.83,3.6-6.23,4.97C648.04,175.91,643.78,177.09,639.46,177.09z M639.36,132.25c-5.23,0-9.6,1.88-13.37,5.74
						c-3.79,3.88-5.63,8.33-5.63,13.6c0,5.27,1.82,9.71,5.57,13.55c3.74,3.83,8.11,5.69,13.37,5.69c5.26,0,9.69-1.87,13.53-5.71
						c3.84-3.84,5.71-8.26,5.71-13.49c0-5.24-1.87-9.68-5.72-13.6C648.99,134.15,644.58,132.25,639.36,132.25z M661.58,155.89
						c-0.11,0.59-0.25,1.17-0.4,1.75l0.4-0.74V155.89z M661.41,146.55c0.06,0.28,0.12,0.56,0.17,0.84v-0.48L661.41,146.55z"/>
					<path class="st0" d="M639.46,178.37c-7.46,0-13.89-2.66-19.13-7.89c-5.24-5.24-7.9-11.6-7.9-18.93s2.66-13.69,7.9-18.93
						c5.24-5.24,11.67-7.89,19.13-7.89c4.68,0,9.24,1.25,13.56,3.73c1.47,0.84,2.83,1.8,4.06,2.86V95.53h9.22v81.73h-9.22v-5.61
						c-1.31,1.13-2.75,2.15-4.32,3.04C648.47,177.13,644,178.37,639.46,178.37z M639.46,127.28c-6.75,0-12.58,2.4-17.32,7.15
						c-4.75,4.74-7.15,10.49-7.15,17.12s2.4,12.38,7.15,17.12c4.74,4.74,10.57,7.15,17.32,7.15c4.1,0,8.14-1.12,12.03-3.34
						c2.28-1.29,4.27-2.88,5.92-4.71l2.23-2.48v9.42h4.09V98.1h-4.09v39.62l-2.24-2.51c-1.56-1.75-3.46-3.28-5.65-4.54
						C647.81,128.43,643.68,127.28,639.46,127.28z M639.31,172.12c-5.62,0-10.3-1.99-14.29-6.08c-4-4.1-5.94-8.82-5.94-14.45
						c0-5.63,1.96-10.37,5.99-14.5c4.02-4.13,8.69-6.13,14.29-6.13c5.58,0,10.29,2.02,14.39,6.18c4.1,4.17,6.09,8.91,6.09,14.5
						s-1.99,10.3-6.09,14.4C649.65,170.14,644.93,172.12,639.31,172.12z M639.36,133.53c-4.86,0-8.93,1.75-12.45,5.36
						c-3.54,3.63-5.26,7.78-5.26,12.71c0,4.92,1.71,9.06,5.21,12.66c3.48,3.57,7.56,5.31,12.45,5.31c4.91,0,9.04-1.75,12.63-5.34
						c3.59-3.59,5.34-7.71,5.34-12.58c0-4.88-1.75-9.03-5.36-12.7C648.33,135.3,644.22,133.53,639.36,133.53z M657.05,167.9
						l2.9-10.6c0.15-0.54,0.27-1.09,0.38-1.64l2.54,0.23l-0.16,1.62L657.05,167.9z M660.33,147.63l-0.17-0.8l-2.45-10.83l5.15,10.9
						v0.48L660.33,147.63z"/>
				</g>
			</g>
			<g>
				<g>
					<path class="st0" d="M710.15,175.48h-0.91c-6.39,0-11.97-2.41-16.71-7.22c-4.75-4.81-7.12-10.42-7.12-16.82
						c0-6.39,2.35-11.93,7.07-16.61c4.71-4.68,10.53-7.02,17.47-7.02c6.94,0,12.89,2.76,17.88,8.28l-31.71,31.31
						c4.38,3.5,8.58,5.25,12.62,5.25c4.04,0,7.66-0.92,10.86-2.78s5.84-4.33,7.93-7.42v5.15
						C722.74,172.85,716.95,175.48,710.15,175.48z M709.09,130.64c-5.35,0-10.1,2.07-14.24,6.21c-4.14,4.14-6.21,8.9-6.21,14.29
						s1.78,10.1,5.35,14.14l29.38-29.19C719.21,132.46,714.44,130.64,709.09,130.64z"/>
					<path class="st0" d="M710.15,176.76h-0.91c-6.72,0-12.65-2.56-17.63-7.6c-4.97-5.04-7.49-11-7.49-17.72s2.51-12.62,7.45-17.52
						c4.93-4.9,11.11-7.39,18.37-7.39c7.28,0,13.61,2.93,18.83,8.7l0.82,0.91l-31.54,31.14c3.71,2.72,7.3,4.09,10.68,4.09
						c3.79,0,7.23-0.88,10.22-2.6c3.01-1.75,5.54-4.11,7.51-7.03l2.34-3.47v9.84l-0.33,0.37
						C723.45,173.97,717.29,176.76,710.15,176.76z M709.95,129.09c-6.56,0-12.13,2.24-16.56,6.65c-4.5,4.47-6.69,9.61-6.69,15.7
						c0,6.02,2.27,11.38,6.75,15.92c4.54,4.6,9.71,6.84,15.8,6.84h0.91c6.32,0,11.59-2.32,16.09-7.1v-0.94
						c-1.74,1.91-3.75,3.52-6.01,4.83c-3.38,1.96-7.25,2.95-11.5,2.95c-4.32,0-8.84-1.86-13.42-5.53l-1.12-0.9l31.85-31.44
						C721.45,131.37,716.18,129.09,709.95,129.09z M693.93,167.15l-0.9-1.02c-3.76-4.26-5.67-9.3-5.67-14.99
						c0-5.71,2.22-10.83,6.58-15.2c4.37-4.37,9.47-6.59,15.15-6.59c5.65,0,10.74,1.94,15.13,5.77l1.04,0.91L693.93,167.15z
						 M709.09,131.92c-4.98,0-9.46,1.96-13.33,5.84c-3.93,3.93-5.83,8.3-5.83,13.38c0,4.58,1.4,8.69,4.16,12.24l27.39-27.2
						C717.81,133.35,713.65,131.92,709.09,131.92z"/>
				</g>
				<g>
					<path class="st0" d="M710.15,177.19h-0.91c-6.84,0-12.87-2.6-17.93-7.73c-5.05-5.12-7.61-11.18-7.61-18.02
						c0-6.84,2.55-12.84,7.57-17.82c5.02-4.99,11.3-7.52,18.67-7.52c7.41,0,13.85,2.98,19.14,8.84l1.09,1.21l-31.47,31.07
						c3.49,2.47,6.85,3.72,10.02,3.72c3.72,0,7.08-0.86,10-2.55c2.96-1.71,5.44-4.04,7.37-6.9l3.12-4.64v11.4l-0.45,0.49
						C723.68,174.35,717.41,177.19,710.15,177.19z M709.09,132.35c-4.93,0-9.19,1.87-13.03,5.71c-3.84,3.84-5.71,8.12-5.71,13.08
						c0,4.39,1.24,8.2,3.78,11.6l26.69-26.52C717.31,133.62,713.46,132.35,709.09,132.35z"/>
					<path class="st0" d="M710.15,178.47h-0.91c-7.19,0-13.53-2.73-18.84-8.11c-5.3-5.37-7.98-11.74-7.98-18.92
						c0-7.19,2.68-13.49,7.95-18.73c5.27-5.23,11.86-7.89,19.58-7.89c7.78,0,14.55,3.12,20.1,9.27l1.92,2.12l-31.22,30.82
						c2.8,1.75,5.49,2.63,8,2.63c3.49,0,6.64-0.8,9.36-2.37c2.79-1.61,5.13-3.8,6.95-6.51l5.47-8.11v16.09l-0.78,0.86
						C724.38,175.49,717.79,178.47,710.15,178.47z M709.95,127.38c-7.02,0-13,2.4-17.77,7.14c-4.78,4.74-7.2,10.43-7.2,16.92
						c0,6.49,2.44,12.25,7.24,17.12c4.81,4.88,10.54,7.35,17.02,7.35h0.91c6.89,0,12.84-2.7,17.69-8.02l0.11-0.12v-6.71l-0.78,1.16
						c-2.04,3.03-4.67,5.48-7.79,7.29c-3.11,1.81-6.7,2.72-10.64,2.72c-3.43,0-7.05-1.33-10.76-3.96l-1.25-0.88l31.68-31.28
						l-0.27-0.3C723.09,130.22,716.98,127.38,709.95,127.38z M693.98,164.69l-0.88-1.18c-2.71-3.63-4.03-7.68-4.03-12.37
						c0-5.32,1.99-9.89,6.08-13.99c4.1-4.1,8.66-6.09,13.94-6.09c4.67,0,8.75,1.35,12.5,4.13l1.19,0.89L693.98,164.69z
						 M709.09,133.63c-4.57,0-8.54,1.75-12.13,5.34c-3.59,3.59-5.33,7.57-5.33,12.18c0,3.59,0.88,6.75,2.68,9.61l24.51-24.35
						C715.87,134.54,712.68,133.63,709.09,133.63z"/>
				</g>
			</g>
		</g>
		<g>
			<g>
				<path class="st1" d="M162.39,239.97c-0.13,0-0.2-0.07-0.2-0.2l0.08-27.42c0-0.11,0.05-0.16,0.16-0.16l7.46-0.04
					c1.47-0.02,2.8,0.32,4.01,1.04c1.21,0.72,2.18,1.69,2.89,2.89c0.72,1.21,1.08,2.55,1.08,4.01v11.46c0,1.54-0.37,2.95-1.12,4.21
					c-0.74,1.26-1.74,2.27-2.99,3.01c-1.25,0.75-2.66,1.13-4.23,1.16L162.39,239.97z M167.06,235.06h2.48
					c0.98,0,1.82-0.35,2.49-1.04c0.68-0.69,1.02-1.52,1.02-2.47v-11.5c0-0.85-0.31-1.59-0.94-2.21c-0.62-0.63-1.36-0.92-2.22-0.9
					l-2.79,0.04L167.06,235.06z"/>
			</g>
			<g>
				<path class="st1" d="M196.63,239.97c-0.11,0-0.16-0.07-0.16-0.2l0.04-27.42c0-0.11,0.05-0.16,0.16-0.16h12.81
					c0.11,0,0.16,0.07,0.16,0.2v4.47c0,0.11-0.05,0.16-0.16,0.16h-8.18v6.23h8.18c0.11,0,0.16,0.05,0.16,0.16l0.04,4.51
					c0,0.11-0.05,0.16-0.16,0.16h-8.22v6.99h8.22c0.11,0,0.16,0.07,0.16,0.2v4.55c0,0.11-0.05,0.16-0.16,0.16H196.63z"/>
			</g>
			<g>
				<path class="st1" d="M233.16,239.97c-0.11,0-0.17-0.07-0.2-0.2l-5.51-27.42c-0.03-0.11,0.02-0.16,0.16-0.16h4.51
					c0.11,0,0.17,0.05,0.2,0.16l3.27,18.28l3.19-18.28c0.03-0.11,0.09-0.16,0.2-0.16h4.47c0.13,0,0.19,0.05,0.16,0.16l-5.43,27.42
					c-0.03,0.13-0.09,0.2-0.2,0.2H233.16z"/>
			</g>
			<g>
				<path class="st1" d="M261.57,239.97c-0.11,0-0.16-0.07-0.16-0.2l0.04-27.42c0-0.11,0.05-0.16,0.16-0.16h12.81
					c0.11,0,0.16,0.07,0.16,0.2v4.47c0,0.11-0.05,0.16-0.16,0.16h-8.18v6.23h8.18c0.11,0,0.16,0.05,0.16,0.16l0.04,4.51
					c0,0.11-0.05,0.16-0.16,0.16h-8.22v6.99h8.22c0.11,0,0.16,0.07,0.16,0.2v4.55c0,0.11-0.05,0.16-0.16,0.16H261.57z"/>
			</g>
			<g>
				<path class="st1" d="M293.78,239.97c-0.11,0-0.16-0.07-0.16-0.2l0.04-27.38c0-0.13,0.07-0.2,0.2-0.2h4.43
					c0.13,0,0.2,0.07,0.2,0.2l-0.04,22.67h8.22c0.13,0,0.2,0.07,0.2,0.2v4.51c0,0.13-0.07,0.2-0.2,0.2H293.78z"/>
			</g>
			<g>
				<path class="st1" d="M331.75,240.37c-1.44,0-2.75-0.37-3.93-1.1c-1.18-0.73-2.14-1.7-2.85-2.91c-0.72-1.21-1.08-2.55-1.08-4.01
					l0.04-12.65c0-1.47,0.35-2.79,1.06-3.99c0.7-1.2,1.66-2.16,2.85-2.87c1.2-0.72,2.5-1.08,3.91-1.08c1.44,0,2.74,0.36,3.91,1.08
					c1.17,0.72,2.11,1.68,2.81,2.87c0.7,1.2,1.06,2.53,1.06,3.99l0.04,12.65c0,1.46-0.35,2.8-1.06,4.01
					c-0.7,1.21-1.65,2.18-2.83,2.91C334.49,240.01,333.18,240.37,331.75,240.37z M331.75,235.54c0.8,0,1.5-0.33,2.1-0.98
					c0.6-0.65,0.9-1.39,0.9-2.22l-0.04-12.65c0-0.88-0.28-1.62-0.84-2.24c-0.56-0.61-1.26-0.92-2.12-0.92c-0.82,0-1.53,0.3-2.12,0.9
					c-0.58,0.6-0.88,1.35-0.88,2.26v12.65c0,0.88,0.29,1.63,0.88,2.25C330.22,235.23,330.92,235.54,331.75,235.54z"/>
			</g>
			<g>
				<path class="st1" d="M358.25,239.97c-0.13,0-0.2-0.07-0.2-0.2l0.08-27.42c0-0.11,0.05-0.16,0.16-0.16h7.66
					c2.45,0,4.39,0.75,5.81,2.24c1.43,1.49,2.14,3.51,2.14,6.07c0,1.89-0.37,3.52-1.12,4.91c-0.74,1.39-1.72,2.45-2.91,3.19
					c-1.19,0.74-2.5,1.11-3.91,1.11h-3.03v10.06c0,0.13-0.07,0.2-0.2,0.2H358.25z M362.92,224.88h3.03c0.85,0,1.59-0.4,2.22-1.21
					c0.62-0.81,0.94-1.87,0.94-3.17c0-1.04-0.28-1.89-0.84-2.55c-0.56-0.67-1.33-1-2.32-1l-3.03,0.04V224.88z"/>
			</g>
			<g>
				<path class="st1" d="M392.22,239.97c-0.11,0-0.16-0.07-0.16-0.2l0.08-27.42c0-0.11,0.05-0.16,0.16-0.16h4.87
					c0.11,0,0.2,0.05,0.28,0.16l3.63,5.27l3.63-5.27c0.08-0.11,0.17-0.16,0.28-0.16h4.91c0.11,0,0.16,0.05,0.16,0.16l0.08,27.42
					c0,0.13-0.05,0.2-0.16,0.2h-4.51c-0.11,0-0.16-0.07-0.16-0.2l-0.04-20.36l-4.19,6.07l-4.15-6.07l-0.04,20.36
					c0,0.13-0.05,0.2-0.16,0.2H392.22z"/>
			</g>
			<g>
				<path class="st1" d="M429.1,239.97c-0.11,0-0.16-0.07-0.16-0.2l0.04-27.42c0-0.11,0.05-0.16,0.16-0.16h12.81
					c0.11,0,0.16,0.07,0.16,0.2v4.47c0,0.11-0.05,0.16-0.16,0.16h-8.18v6.23h8.18c0.11,0,0.16,0.05,0.16,0.16l0.04,4.51
					c0,0.11-0.05,0.16-0.16,0.16h-8.22v6.99h8.22c0.11,0,0.16,0.07,0.16,0.2v4.55c0,0.11-0.05,0.16-0.16,0.16H429.1z"/>
			</g>
			<g>
				<path class="st1" d="M461.51,239.97c-0.21,0-0.32-0.09-0.32-0.28l-0.04-27.18c0-0.21,0.11-0.32,0.32-0.32h3.59l6.75,15.73
					l-0.2-15.41c0-0.21,0.12-0.32,0.36-0.32h3.95c0.16,0,0.24,0.11,0.24,0.32l0.04,27.22c0,0.16-0.07,0.24-0.2,0.24h-3.51
					l-6.91-14.69l0.28,14.37c0,0.21-0.12,0.32-0.36,0.32H461.51z"/>
			</g>
			<g>
				<path class="st1" d="M499.11,239.97c-0.11,0-0.16-0.07-0.16-0.2v-22.75h-5.19c-0.13,0-0.2-0.06-0.2-0.2l0.04-4.47
					c0-0.11,0.05-0.16,0.16-0.16h15.17c0.13,0,0.2,0.05,0.2,0.16v4.47c0,0.13-0.05,0.2-0.16,0.2h-5.23l0.04,22.75
					c0,0.13-0.06,0.2-0.16,0.2H499.11z"/>
			</g>
			<g>
				<path class="st1" d="M554.67,240.37c-1.44,0-2.75-0.37-3.93-1.1c-1.18-0.73-2.13-1.7-2.83-2.91c-0.7-1.21-1.06-2.55-1.06-4.01
					v-1.84c0-0.13,0.07-0.2,0.2-0.2h4.47c0.1,0,0.16,0.07,0.16,0.2v1.84c0,0.88,0.29,1.63,0.88,2.25c0.58,0.63,1.29,0.94,2.11,0.94
					s1.53-0.32,2.12-0.96c0.59-0.64,0.88-1.39,0.88-2.24c0-0.98-0.64-1.84-1.92-2.56c-0.42-0.24-1.09-0.61-2-1.11
					c-0.9-0.51-1.76-0.98-2.55-1.44c-1.47-0.85-2.55-1.92-3.25-3.21c-0.7-1.29-1.06-2.75-1.06-4.37c0-1.49,0.36-2.83,1.08-4.01
					c0.72-1.18,1.67-2.12,2.85-2.81c1.18-0.69,2.47-1.04,3.85-1.04c1.41,0,2.71,0.35,3.89,1.06c1.18,0.7,2.13,1.65,2.84,2.83
					c0.7,1.18,1.05,2.51,1.05,3.97v3.27c0,0.11-0.05,0.16-0.16,0.16h-4.47c-0.11,0-0.16-0.05-0.16-0.16l-0.04-3.27
					c0-0.93-0.29-1.69-0.88-2.28c-0.58-0.58-1.27-0.88-2.08-0.88c-0.82,0-1.53,0.31-2.11,0.94c-0.59,0.62-0.88,1.37-0.88,2.22
					c0,0.88,0.19,1.61,0.56,2.2c0.37,0.58,1.05,1.14,2.04,1.68c0.13,0.08,0.39,0.22,0.78,0.42c0.39,0.2,0.8,0.43,1.26,0.68
					c0.45,0.25,0.86,0.47,1.22,0.66c0.36,0.19,0.58,0.31,0.66,0.36c1.33,0.74,2.38,1.66,3.15,2.73c0.77,1.08,1.15,2.4,1.15,3.97
					c0,1.52-0.35,2.88-1.05,4.09c-0.71,1.21-1.65,2.17-2.84,2.87C557.42,240.02,556.11,240.37,554.67,240.37z"/>
			</g>
			<g>
				<path class="st1" d="M588.08,240.37c-1.47,0-2.79-0.37-3.97-1.1s-2.12-1.71-2.81-2.93c-0.69-1.22-1.04-2.6-1.04-4.11l0.04-12.45
					c0-1.47,0.34-2.8,1.02-4.01c0.68-1.21,1.61-2.18,2.79-2.91s2.51-1.1,3.97-1.1c1.46,0,2.78,0.36,3.95,1.08
					c1.17,0.72,2.1,1.68,2.79,2.89c0.69,1.21,1.04,2.56,1.04,4.05v1.84c0,0.11-0.05,0.16-0.16,0.16h-4.47
					c-0.11,0-0.16-0.05-0.16-0.16v-1.84c0-0.88-0.29-1.64-0.86-2.28c-0.57-0.64-1.28-0.96-2.14-0.96c-0.96,0-1.69,0.33-2.2,0.98
					s-0.76,1.41-0.76,2.26v12.45c0,0.98,0.28,1.78,0.86,2.39c0.57,0.61,1.27,0.92,2.1,0.92c0.85,0,1.56-0.34,2.14-1.02
					c0.57-0.68,0.86-1.45,0.86-2.3v-1.84c0-0.11,0.05-0.16,0.16-0.16h4.51c0.11,0,0.16,0.05,0.16,0.16v1.84
					c0,1.52-0.35,2.89-1.06,4.11c-0.7,1.22-1.64,2.2-2.81,2.93S589.54,240.37,588.08,240.37z"/>
			</g>
			<g>
				<path class="st1" d="M614.42,239.97c-0.11,0-0.16-0.07-0.16-0.2l0.04-27.42c0-0.11,0.07-0.16,0.2-0.16h4.43
					c0.13,0,0.2,0.05,0.2,0.16l-0.04,10.86h5.99v-10.86c0-0.11,0.05-0.16,0.16-0.16h4.43c0.13,0,0.2,0.05,0.2,0.16l0.08,27.42
					c0,0.13-0.07,0.2-0.2,0.2h-4.47c-0.13,0-0.2-0.07-0.2-0.2v-11.74h-5.99v11.74c0,0.13-0.05,0.2-0.16,0.2H614.42z"/>
			</g>
			<g>
				<path class="st1" d="M656.05,240.37c-1.44,0-2.75-0.37-3.93-1.1s-2.14-1.7-2.85-2.91c-0.72-1.21-1.08-2.55-1.08-4.01l0.04-12.65
					c0-1.47,0.35-2.79,1.06-3.99c0.7-1.2,1.66-2.16,2.85-2.87c1.2-0.72,2.5-1.08,3.91-1.08c1.44,0,2.74,0.36,3.91,1.08
					c1.17,0.72,2.11,1.68,2.81,2.87c0.7,1.2,1.06,2.53,1.06,3.99l0.04,12.65c0,1.46-0.35,2.8-1.06,4.01
					c-0.7,1.21-1.65,2.18-2.83,2.91C658.8,240.01,657.49,240.37,656.05,240.37z M656.05,235.54c0.8,0,1.5-0.33,2.1-0.98
					c0.6-0.65,0.9-1.39,0.9-2.22l-0.04-12.65c0-0.88-0.28-1.62-0.84-2.24c-0.56-0.61-1.26-0.92-2.12-0.92c-0.82,0-1.53,0.3-2.12,0.9
					c-0.58,0.6-0.88,1.35-0.88,2.26v12.65c0,0.88,0.29,1.63,0.88,2.25C654.52,235.23,655.23,235.54,656.05,235.54z"/>
			</g>
			<g>
				<path class="st1" d="M689.74,240.37c-1.44,0-2.75-0.37-3.93-1.1c-1.18-0.73-2.14-1.7-2.85-2.91c-0.72-1.21-1.08-2.55-1.08-4.01
					l0.04-12.65c0-1.47,0.35-2.79,1.06-3.99c0.7-1.2,1.66-2.16,2.85-2.87c1.2-0.72,2.5-1.08,3.91-1.08c1.44,0,2.74,0.36,3.91,1.08
					c1.17,0.72,2.11,1.68,2.81,2.87c0.7,1.2,1.06,2.53,1.06,3.99l0.04,12.65c0,1.46-0.35,2.8-1.06,4.01
					c-0.7,1.21-1.65,2.18-2.83,2.91C692.49,240.01,691.18,240.37,689.74,240.37z M689.74,235.54c0.8,0,1.5-0.33,2.1-0.98
					c0.6-0.65,0.9-1.39,0.9-2.22l-0.04-12.65c0-0.88-0.28-1.62-0.84-2.24c-0.56-0.61-1.26-0.92-2.12-0.92c-0.82,0-1.53,0.3-2.12,0.9
					c-0.58,0.6-0.88,1.35-0.88,2.26v12.65c0,0.88,0.29,1.63,0.88,2.25C688.21,235.23,688.92,235.54,689.74,235.54z"/>
			</g>
			<g>
				<path class="st1" d="M716.21,239.97c-0.11,0-0.16-0.07-0.16-0.2l0.04-27.38c0-0.13,0.07-0.2,0.2-0.2h4.43
					c0.13,0,0.2,0.07,0.2,0.2l-0.04,22.67h8.22c0.13,0,0.2,0.07,0.2,0.2v4.51c0,0.13-0.07,0.2-0.2,0.2H716.21z"/>
			</g>
		</g>
	</g>
</g>
</svg>
